<svg id="svg" version="1.1" xmlns="http://www.w3.org/2000/svg" xmlns:xlink="http://www.w3.org/1999/xlink" width="400" height="400" viewBox="0, 0, 400,400"><g id="svgg"><path id="path0" d="M174.000 48.408 C 173.661 48.623,168.775 48.790,162.780 48.794 C 156.748 48.797,151.996 48.961,151.780 49.174 C 151.571 49.379,148.610 49.650,145.200 49.776 C 132.790 50.235,129.393 50.455,129.020 50.824 C 128.811 51.031,127.313 51.200,125.691 51.200 C 123.604 51.200,122.568 51.375,122.143 51.800 C 121.813 52.130,120.915 52.400,120.148 52.400 C 119.382 52.400,117.549 52.569,116.077 52.775 C 114.605 52.982,111.690 53.352,109.600 53.597 C 104.101 54.243,94.892 55.562,92.800 56.004 C 87.973 57.024,81.035 58.145,77.800 58.427 C 75.820 58.601,73.750 58.846,73.200 58.972 C 72.650 59.099,71.480 59.313,70.600 59.449 C 69.720 59.584,68.802 59.853,68.560 60.047 C 68.317 60.241,67.642 60.439,67.060 60.487 C 66.477 60.535,66.000 60.715,66.000 60.887 C 66.000 61.059,65.685 61.198,65.300 61.196 C 64.559 61.192,59.879 62.646,58.705 63.245 C 58.323 63.440,57.659 63.600,57.229 63.600 C 56.799 63.600,56.336 63.780,56.200 64.000 C 56.064 64.220,55.603 64.400,55.176 64.400 C 54.749 64.400,54.400 64.591,54.400 64.824 C 54.400 65.057,54.258 65.159,54.084 65.052 C 53.910 64.944,53.145 65.134,52.384 65.472 C 49.043 66.959,47.380 67.817,47.106 68.195 C 46.944 68.418,46.809 68.455,46.806 68.277 C 46.798 67.864,44.400 69.268,44.400 69.686 C 44.400 69.859,44.207 70.000,43.972 70.000 C 42.561 70.000,36.973 74.957,35.142 77.833 L 34.085 79.494 34.037 102.047 C 34.010 114.703,34.155 125.478,34.366 126.600 C 34.939 129.641,35.406 131.270,36.160 132.859 C 36.537 133.655,36.917 134.865,37.004 135.548 C 37.090 136.232,37.530 137.187,37.980 137.671 C 38.431 138.155,38.800 138.817,38.800 139.142 C 38.800 139.467,38.911 139.622,39.048 139.486 C 39.344 139.190,40.400 140.173,40.400 140.744 C 40.400 140.965,40.760 141.260,41.200 141.400 C 41.640 141.540,42.000 141.822,42.000 142.027 C 42.000 142.232,42.236 142.400,42.525 142.400 C 42.813 142.400,43.436 142.760,43.908 143.200 C 44.380 143.640,44.954 144.000,45.183 144.000 C 45.412 144.000,45.600 144.180,45.600 144.400 C 45.600 144.620,45.870 144.800,46.200 144.800 C 46.530 144.800,46.800 144.980,46.800 145.200 C 46.800 145.420,47.149 145.600,47.576 145.600 C 48.003 145.600,48.464 145.780,48.600 146.000 C 48.736 146.220,49.377 146.400,50.024 146.400 C 50.671 146.400,51.200 146.580,51.200 146.800 C 51.200 147.020,52.100 147.200,53.200 147.200 C 54.300 147.200,55.200 147.370,55.200 147.578 C 55.200 147.786,56.041 148.011,57.069 148.078 C 58.747 148.188,58.977 148.322,59.329 149.400 C 59.544 150.060,59.906 150.721,60.134 150.870 C 60.415 151.052,60.402 151.315,60.093 151.688 C 59.589 152.296,59.580 154.059,60.083 153.749 C 60.257 153.641,60.400 153.754,60.400 154.000 C 60.400 154.246,60.554 154.352,60.742 154.236 C 60.930 154.119,60.999 154.469,60.896 155.012 C 60.774 155.648,60.890 156.000,61.220 156.000 C 61.502 156.000,61.620 156.114,61.481 156.253 C 60.955 156.779,61.987 157.929,62.795 157.717 C 63.357 157.570,63.600 157.702,63.600 158.153 C 63.600 158.509,63.770 158.800,63.977 158.800 C 64.184 158.800,64.285 159.156,64.202 159.592 C 64.118 160.027,64.218 160.488,64.425 160.615 C 64.631 160.743,64.800 160.658,64.800 160.428 C 64.800 159.774,66.396 161.301,66.432 161.989 C 66.453 162.400,66.529 162.436,66.665 162.100 C 66.943 161.410,67.865 161.472,68.145 162.200 C 68.282 162.558,68.148 162.800,67.811 162.800 C 67.501 162.800,67.152 162.954,67.036 163.142 C 66.919 163.330,67.269 163.399,67.812 163.296 C 68.431 163.177,68.800 163.291,68.800 163.600 C 68.800 163.912,69.172 164.022,69.810 163.900 C 70.477 163.773,70.943 163.927,71.182 164.354 C 71.381 164.709,71.646 164.955,71.772 164.900 C 72.429 164.612,72.803 164.894,72.832 165.700 C 72.849 166.195,72.954 166.375,73.065 166.100 C 73.281 165.565,74.398 165.398,74.403 165.900 C 74.409 166.461,76.345 167.101,77.595 166.956 C 78.418 166.860,78.749 166.958,78.572 167.245 C 78.399 167.525,78.622 167.509,79.200 167.200 C 79.710 166.927,79.987 166.898,79.842 167.132 C 79.702 167.359,79.770 167.658,79.993 167.796 C 80.217 167.934,80.400 167.846,80.400 167.600 C 80.400 167.354,80.566 167.255,80.769 167.381 C 81.630 167.913,84.426 168.087,95.184 168.277 C 107.493 168.494,107.556 168.506,107.587 170.700 C 107.594 171.195,107.780 171.600,108.000 171.600 C 108.220 171.600,108.400 172.129,108.400 172.776 C 108.400 173.423,108.560 174.051,108.755 174.172 C 108.950 174.293,109.236 175.068,109.390 175.896 C 109.545 176.723,109.813 177.580,109.985 177.800 C 110.158 178.020,110.693 179.370,111.176 180.800 C 111.658 182.230,112.203 183.760,112.386 184.200 C 112.569 184.640,112.936 185.630,113.200 186.400 C 113.782 188.093,114.371 189.560,114.847 190.495 C 115.041 190.877,115.200 191.541,115.200 191.971 C 115.200 192.401,115.344 192.842,115.521 192.951 C 115.697 193.060,116.093 194.072,116.400 195.200 C 116.707 196.328,117.103 197.340,117.279 197.449 C 117.456 197.558,117.600 198.087,117.600 198.624 C 117.600 199.161,117.747 199.600,117.928 199.600 C 118.108 199.600,118.500 200.500,118.800 201.600 C 119.100 202.700,119.453 203.600,119.585 203.600 C 119.717 203.600,119.866 204.095,119.916 204.700 C 119.966 205.305,120.185 205.860,120.403 205.933 C 120.622 206.007,120.800 206.502,120.800 207.033 C 120.800 207.565,120.980 208.000,121.200 208.000 C 121.420 208.000,121.600 208.540,121.600 209.200 C 121.600 209.860,121.780 210.400,122.000 210.400 C 122.220 210.400,122.400 210.749,122.400 211.176 C 122.400 211.603,122.580 212.064,122.800 212.200 C 123.020 212.336,123.200 212.799,123.200 213.229 C 123.200 213.659,123.359 214.323,123.553 214.705 C 124.096 215.772,124.625 217.191,125.379 219.600 C 125.758 220.810,126.214 222.160,126.394 222.600 C 127.267 224.745,127.645 225.936,127.705 226.730 C 127.741 227.209,127.868 227.600,127.987 227.600 C 128.227 227.600,128.797 228.954,129.586 231.400 C 129.870 232.280,130.439 233.709,130.851 234.575 C 131.263 235.441,131.600 236.371,131.600 236.642 C 131.600 236.912,131.735 237.193,131.900 237.267 C 132.065 237.340,132.617 238.223,133.127 239.229 C 133.636 240.235,134.491 241.568,135.027 242.192 C 135.562 242.815,136.000 243.463,136.000 243.632 C 136.000 243.999,142.989 251.200,143.345 251.200 C 143.482 251.200,144.413 251.826,145.414 252.590 C 147.364 254.078,152.778 256.800,153.789 256.800 C 154.125 256.800,154.400 256.980,154.400 257.200 C 154.400 257.420,154.814 257.600,155.320 257.600 C 155.826 257.600,156.416 257.776,156.631 257.991 C 156.846 258.206,158.586 258.502,160.499 258.649 C 162.411 258.796,163.880 259.070,163.764 259.258 C 163.648 259.447,183.760 259.600,208.576 259.600 L 253.600 259.600 253.600 260.576 C 253.600 261.113,253.780 261.664,254.000 261.800 C 254.220 261.936,254.400 262.577,254.400 263.224 C 254.400 263.871,254.580 264.400,254.800 264.400 C 255.020 264.400,255.200 264.839,255.200 265.376 C 255.200 265.913,255.380 266.464,255.600 266.600 C 255.820 266.736,256.000 267.377,256.000 268.024 C 256.000 268.671,256.180 269.200,256.400 269.200 C 256.620 269.200,256.800 269.729,256.800 270.376 C 256.800 271.023,256.980 271.664,257.200 271.800 C 257.420 271.936,257.600 272.476,257.600 273.000 C 257.600 273.524,257.756 274.049,257.947 274.168 C 258.139 274.286,258.415 275.151,258.563 276.091 C 258.710 277.031,259.195 278.833,259.640 280.096 C 260.085 281.358,260.476 282.753,260.510 283.196 C 260.543 283.638,260.673 284.000,260.798 284.000 C 260.923 284.000,261.260 284.855,261.546 285.900 C 261.833 286.945,262.210 288.160,262.386 288.600 C 262.561 289.040,263.105 290.750,263.593 292.400 C 264.082 294.050,264.644 295.713,264.841 296.095 C 265.038 296.477,265.200 297.242,265.200 297.795 C 265.200 298.348,265.380 298.800,265.600 298.800 C 265.820 298.800,266.000 299.340,266.000 300.000 C 266.000 300.660,266.180 301.200,266.400 301.200 C 266.620 301.200,266.800 301.729,266.800 302.376 C 266.800 303.023,266.980 303.664,267.200 303.800 C 267.420 303.936,267.600 304.476,267.600 305.000 C 267.600 305.524,267.780 306.064,268.000 306.200 C 268.220 306.336,268.400 306.962,268.400 307.590 C 268.400 308.219,268.594 308.798,268.831 308.877 C 269.433 309.078,269.455 317.105,268.855 317.705 C 268.605 317.955,268.400 318.574,268.400 319.080 C 268.400 319.586,268.250 320.000,268.068 320.000 C 267.885 320.000,267.480 320.495,267.168 321.100 C 266.855 321.705,266.285 322.549,265.900 322.975 C 265.515 323.402,265.200 323.903,265.200 324.089 C 265.200 324.275,264.705 324.945,264.100 325.578 C 262.635 327.111,262.284 327.598,261.706 328.900 C 261.437 329.505,261.033 330.000,260.809 330.000 C 260.584 330.000,260.400 330.360,260.400 330.800 C 260.400 331.240,260.259 331.600,260.087 331.600 C 259.915 331.600,259.735 332.077,259.687 332.660 C 259.639 333.242,259.441 333.917,259.248 334.160 C 257.791 335.986,259.511 344.285,261.939 347.146 C 262.303 347.575,262.865 348.302,263.188 348.763 C 263.512 349.223,263.924 349.600,264.105 349.600 C 264.286 349.600,264.820 349.960,265.292 350.400 C 265.764 350.840,266.477 351.200,266.875 351.200 C 267.274 351.200,267.600 351.380,267.600 351.600 C 267.600 351.820,268.140 352.000,268.800 352.000 C 269.460 352.000,270.000 352.181,270.000 352.403 C 270.000 352.672,286.553 352.803,319.620 352.797 C 352.080 352.791,369.155 352.652,368.996 352.394 C 368.855 352.165,369.321 352.000,370.109 352.000 C 370.854 352.000,372.336 351.559,373.402 351.019 C 374.467 350.480,375.455 350.110,375.597 350.198 C 375.738 350.285,376.107 350.007,376.415 349.579 C 376.724 349.150,377.186 348.800,377.442 348.800 C 378.103 348.800,383.200 343.771,383.200 343.119 C 383.200 342.821,383.560 342.317,384.000 342.000 C 384.440 341.683,384.800 341.103,384.800 340.712 C 384.800 340.320,384.935 339.999,385.100 339.997 C 385.506 339.993,386.400 338.014,386.400 337.120 C 386.400 336.724,386.580 336.400,386.800 336.400 C 387.020 336.400,387.200 335.680,387.200 334.800 C 387.200 333.920,387.367 333.200,387.570 333.200 C 388.301 333.200,387.514 322.641,386.748 322.168 C 386.557 322.050,386.400 321.524,386.400 321.000 C 386.400 320.476,386.220 319.936,386.000 319.800 C 385.780 319.664,385.600 319.023,385.600 318.376 C 385.600 317.729,385.420 317.200,385.200 317.200 C 384.980 317.200,384.800 316.660,384.800 316.000 C 384.800 315.340,384.620 314.800,384.400 314.800 C 384.180 314.800,384.000 314.159,384.000 313.376 C 384.000 312.529,383.838 312.053,383.600 312.200 C 383.361 312.347,383.200 311.863,383.200 311.000 C 383.200 310.137,383.039 309.653,382.800 309.800 C 382.568 309.944,382.400 309.549,382.400 308.857 C 382.400 308.202,382.228 307.607,382.018 307.533 C 381.807 307.460,381.591 306.737,381.537 305.926 C 381.484 305.115,381.296 304.541,381.120 304.649 C 380.944 304.758,380.800 304.307,380.800 303.647 C 380.800 302.987,380.620 302.336,380.400 302.200 C 380.180 302.064,380.000 301.524,380.000 301.000 C 380.000 300.476,379.820 299.936,379.600 299.800 C 379.380 299.664,379.200 299.113,379.200 298.576 C 379.200 298.039,379.020 297.600,378.800 297.600 C 378.580 297.600,378.400 297.060,378.400 296.400 C 378.400 295.740,378.220 295.200,378.000 295.200 C 377.780 295.200,377.600 294.570,377.600 293.800 C 377.600 293.030,377.420 292.400,377.200 292.400 C 376.980 292.400,376.800 291.950,376.800 291.400 C 376.800 290.850,376.620 290.400,376.400 290.400 C 376.180 290.400,376.000 289.871,376.000 289.224 C 376.000 288.577,375.820 287.936,375.600 287.800 C 375.380 287.664,375.200 287.120,375.200 286.590 C 375.200 286.061,374.918 284.796,374.573 283.780 C 374.227 282.763,373.919 281.587,373.887 281.166 C 373.856 280.745,373.688 280.400,373.515 280.400 C 373.342 280.400,373.200 279.961,373.200 279.424 C 373.200 278.887,373.020 278.336,372.800 278.200 C 372.580 278.064,372.400 277.434,372.400 276.800 C 372.400 276.166,372.220 275.536,372.000 275.400 C 371.780 275.264,371.600 274.749,371.600 274.256 C 371.600 273.763,371.426 273.186,371.213 272.973 C 371.001 272.761,370.783 272.005,370.728 271.293 C 370.674 270.582,370.527 270.000,370.402 270.000 C 370.277 270.000,369.943 269.145,369.661 268.100 C 369.378 267.055,368.979 265.887,368.773 265.505 C 368.568 265.123,368.400 264.358,368.400 263.805 C 368.400 263.252,368.220 262.800,368.000 262.800 C 367.780 262.800,367.600 262.271,367.600 261.624 C 367.600 260.977,367.420 260.336,367.200 260.200 C 366.980 260.064,366.800 259.524,366.800 259.000 C 366.800 258.476,366.620 257.936,366.400 257.800 C 366.180 257.664,366.000 257.023,366.000 256.376 C 366.000 255.729,365.820 255.200,365.600 255.200 C 365.380 255.200,365.200 254.671,365.200 254.024 C 365.200 253.377,365.020 252.736,364.800 252.600 C 364.580 252.464,364.400 251.924,364.400 251.400 C 364.400 250.876,364.220 250.336,364.000 250.200 C 363.780 250.064,363.600 249.423,363.600 248.776 C 363.600 248.129,363.420 247.600,363.200 247.600 C 362.980 247.600,362.800 247.060,362.800 246.400 C 362.800 245.740,362.620 245.200,362.400 245.200 C 362.180 245.200,362.000 244.660,362.000 244.000 C 362.000 243.340,361.820 242.800,361.600 242.800 C 361.380 242.800,361.200 242.181,361.200 241.424 C 361.200 240.667,361.020 239.936,360.800 239.800 C 360.580 239.664,360.400 239.023,360.400 238.376 C 360.400 237.729,360.220 237.200,360.000 237.200 C 359.780 237.200,359.600 236.660,359.600 236.000 C 359.600 235.340,359.441 234.800,359.247 234.800 C 359.052 234.800,358.768 233.630,358.615 232.200 C 358.462 230.770,358.171 229.600,357.968 229.600 C 357.766 229.600,357.600 229.248,357.600 228.819 C 357.600 228.389,357.439 227.624,357.242 227.119 C 356.725 225.793,355.275 220.285,355.106 219.000 C 355.048 218.560,354.875 218.105,354.721 217.990 C 354.568 217.874,354.398 217.019,354.343 216.090 C 354.288 215.160,354.117 214.400,353.962 214.400 C 353.695 214.400,353.476 213.149,352.945 208.600 C 352.817 207.500,352.562 206.506,352.379 206.390 C 352.195 206.275,352.010 204.610,351.968 202.690 C 351.926 200.771,351.736 199.200,351.546 199.200 C 351.079 199.200,351.103 193.860,351.571 193.380 C 351.775 193.171,352.027 191.560,352.131 189.800 C 352.351 186.061,352.747 184.000,353.245 184.000 C 353.440 184.000,353.603 183.595,353.606 183.100 C 353.618 181.339,355.325 177.524,357.643 174.080 C 358.279 173.134,358.800 172.253,358.800 172.121 C 358.800 171.664,367.116 163.600,367.588 163.600 C 367.849 163.600,368.754 162.880,369.600 162.000 C 370.446 161.120,371.308 160.400,371.518 160.400 C 372.156 160.400,377.600 154.310,377.600 153.595 C 377.600 153.378,377.780 153.200,378.000 153.200 C 378.220 153.200,378.400 152.930,378.400 152.600 C 378.400 152.270,378.580 152.000,378.800 152.000 C 379.020 152.000,379.200 151.640,379.200 151.200 C 379.200 150.760,379.380 150.400,379.600 150.400 C 379.820 150.400,380.000 150.040,380.000 149.600 C 380.000 149.160,380.180 148.800,380.400 148.800 C 380.620 148.800,380.800 148.260,380.800 147.600 C 380.800 146.940,380.960 146.400,381.156 146.400 C 381.753 146.400,382.084 143.691,382.265 137.300 C 382.382 133.200,382.302 131.200,382.020 131.200 C 381.789 131.200,381.600 130.719,381.600 130.131 C 381.600 129.544,381.362 128.779,381.071 128.431 C 380.564 127.826,380.209 126.754,379.207 122.800 C 376.954 113.913,369.386 92.225,366.119 85.293 C 365.744 84.498,365.598 83.512,365.745 82.774 C 365.896 82.022,365.838 81.653,365.594 81.804 C 365.377 81.938,365.200 81.677,365.200 81.224 C 365.200 80.771,365.020 80.400,364.800 80.400 C 364.580 80.400,364.400 80.040,364.400 79.600 C 364.400 79.160,364.220 78.800,364.000 78.800 C 363.780 78.800,363.600 78.350,363.600 77.800 C 363.600 77.250,363.420 76.800,363.200 76.800 C 362.980 76.800,362.800 76.530,362.800 76.200 C 362.800 75.870,362.659 75.600,362.486 75.600 C 362.314 75.600,361.873 75.093,361.507 74.473 C 360.543 72.841,357.865 70.000,357.291 70.000 C 357.021 70.000,356.800 69.853,356.800 69.674 C 356.800 69.263,353.718 67.600,352.957 67.600 C 352.645 67.600,352.077 67.441,351.695 67.247 C 350.522 66.650,349.074 66.076,347.400 65.545 C 346.520 65.265,345.629 64.893,345.420 64.718 C 345.211 64.543,344.525 64.400,343.896 64.400 C 343.267 64.400,342.842 64.256,342.951 64.080 C 343.059 63.904,342.485 63.715,341.675 63.661 C 340.865 63.606,340.030 63.390,339.821 63.181 C 339.611 62.971,338.947 62.800,338.344 62.800 C 337.741 62.800,337.148 62.639,337.026 62.442 C 336.905 62.245,336.129 61.982,335.303 61.858 C 331.793 61.328,330.780 61.092,330.573 60.756 C 330.452 60.560,329.744 60.400,329.000 60.400 C 328.256 60.400,327.536 60.220,327.400 60.000 C 327.264 59.780,326.383 59.600,325.443 59.600 C 324.503 59.600,323.605 59.471,323.447 59.314 C 323.146 59.013,322.986 58.987,318.700 58.560 C 317.215 58.412,316.000 58.135,316.000 57.945 C 316.000 57.755,315.021 57.600,313.824 57.600 C 312.627 57.600,311.536 57.420,311.400 57.200 C 311.264 56.980,310.184 56.800,309.000 56.800 C 307.816 56.800,306.736 56.620,306.600 56.400 C 306.464 56.180,305.273 56.000,303.953 56.000 C 302.455 56.000,301.646 55.850,301.800 55.600 C 301.956 55.348,301.012 55.200,299.247 55.200 C 297.707 55.200,296.336 55.020,296.200 54.800 C 296.064 54.580,294.703 54.400,293.176 54.400 C 291.649 54.400,290.400 54.233,290.400 54.029 C 290.400 53.683,289.065 53.549,279.805 52.965 C 277.827 52.840,276.112 52.582,275.994 52.390 C 275.876 52.199,273.939 52.011,271.689 51.972 C 269.440 51.933,267.600 51.754,267.600 51.574 C 267.600 51.394,265.485 51.150,262.900 51.032 C 260.315 50.913,255.590 50.632,252.400 50.407 C 231.488 48.932,175.432 47.503,174.000 48.408 M328.400 85.989 C 329.170 86.232,330.430 86.615,331.200 86.842 C 333.670 87.567,338.109 89.595,338.333 90.100 C 338.407 90.265,338.688 90.400,338.958 90.400 C 339.228 90.400,339.798 90.720,340.225 91.111 C 340.651 91.502,341.630 92.262,342.400 92.801 C 347.049 96.054,352.403 103.387,354.143 108.888 C 356.875 117.524,357.106 122.553,355.121 130.200 C 352.290 141.102,344.454 149.995,333.800 154.397 C 333.140 154.670,332.287 155.052,331.905 155.247 C 331.523 155.441,330.794 155.600,330.285 155.600 C 329.776 155.600,329.189 155.763,328.980 155.963 C 328.034 156.867,318.234 157.212,314.400 156.477 C 309.929 155.620,309.927 155.619,307.100 154.454 C 304.529 153.394,303.646 152.929,300.794 151.135 C 285.906 141.769,280.298 121.717,288.061 105.612 C 288.966 103.736,289.863 102.140,290.053 102.067 C 290.244 101.993,290.400 101.748,290.400 101.522 C 290.400 100.572,295.974 94.504,298.400 92.814 C 299.170 92.277,299.890 91.716,300.000 91.566 C 300.221 91.264,302.628 89.864,304.800 88.774 C 307.627 87.355,312.262 85.897,315.400 85.439 C 317.508 85.132,326.948 85.531,328.400 85.989 M151.600 88.008 C 153.690 88.222,157.380 88.591,159.800 88.828 C 179.074 90.716,203.481 95.902,214.200 100.387 C 214.640 100.571,216.080 101.120,217.400 101.607 C 218.720 102.094,220.563 102.831,221.496 103.246 C 222.428 103.661,223.274 104.000,223.376 104.000 C 223.477 104.000,225.504 104.935,227.880 106.077 C 260.939 121.969,284.673 147.542,301.316 185.200 C 305.325 194.272,311.179 211.820,312.762 219.513 C 314.382 227.383,306.768 234.226,299.081 231.808 C 294.594 230.397,292.731 227.891,290.836 220.718 C 289.256 214.738,285.708 203.920,283.909 199.600 C 283.680 199.050,283.355 198.240,283.187 197.800 C 283.019 197.360,282.608 196.370,282.274 195.600 C 281.939 194.830,281.347 193.390,280.957 192.400 C 280.048 190.094,274.363 178.767,272.910 176.368 C 272.299 175.361,270.911 173.066,269.824 171.268 C 257.528 150.935,235.576 132.135,214.000 123.461 C 211.888 122.612,210.738 122.142,209.500 121.621 C 208.653 121.265,204.142 119.774,199.200 118.217 C 169.047 108.714,124.661 106.306,81.400 111.827 C 73.177 112.876,69.416 113.444,61.800 114.784 C 52.970 116.337,51.498 116.181,47.680 113.278 C 41.254 108.393,43.632 97.248,51.600 94.904 C 54.250 94.124,64.220 92.263,69.213 91.615 C 70.856 91.402,74.900 90.864,78.200 90.420 C 88.661 89.012,99.272 88.082,110.400 87.599 C 119.441 87.206,146.382 87.473,151.600 88.008 M224.800 169.200 C 224.800 169.640,224.991 170.000,225.224 170.000 C 225.457 170.000,225.562 170.138,225.458 170.306 C 225.354 170.475,225.543 171.600,225.879 172.806 C 226.214 174.013,226.584 175.540,226.700 176.200 C 226.816 176.860,227.027 177.490,227.169 177.600 C 227.311 177.710,227.845 179.150,228.355 180.800 C 228.865 182.450,229.444 184.113,229.641 184.495 C 229.838 184.877,230.000 185.541,230.000 185.971 C 230.000 186.401,230.180 186.864,230.400 187.000 C 230.620 187.136,230.800 187.766,230.800 188.400 C 230.800 189.034,230.980 189.664,231.200 189.800 C 231.420 189.936,231.600 190.476,231.600 191.000 C 231.600 191.524,231.780 192.064,232.000 192.200 C 232.220 192.336,232.400 192.903,232.400 193.459 C 232.400 194.016,232.757 194.771,233.192 195.136 C 234.365 196.119,237.559 206.179,237.308 208.100 C 237.184 209.050,237.275 209.600,237.556 209.600 C 237.800 209.600,238.000 210.129,238.000 210.776 C 238.000 211.423,238.180 212.064,238.400 212.200 C 238.620 212.336,238.800 212.887,238.800 213.424 C 238.800 213.961,238.980 214.400,239.200 214.400 C 239.420 214.400,239.600 215.030,239.600 215.800 C 239.600 216.570,239.780 217.200,240.000 217.200 C 240.220 217.200,240.400 217.729,240.400 218.376 C 240.400 219.023,240.580 219.664,240.800 219.800 C 241.020 219.936,241.200 220.577,241.200 221.224 C 241.200 221.871,241.363 222.400,241.562 222.400 C 241.762 222.400,242.054 223.338,242.212 224.484 C 242.369 225.630,242.635 226.845,242.802 227.184 C 243.384 228.362,243.919 229.812,244.506 231.800 L 245.096 233.800 206.070 233.902 C 180.321 233.969,166.907 233.867,166.642 233.602 C 166.421 233.381,165.772 233.200,165.200 233.200 C 164.022 233.200,162.008 232.366,162.003 231.876 C 162.001 231.698,161.835 231.655,161.632 231.780 C 161.430 231.905,160.993 231.736,160.661 231.404 C 160.329 231.072,159.864 230.800,159.628 230.800 C 159.025 230.800,156.391 227.939,156.632 227.548 C 156.742 227.371,156.464 226.997,156.016 226.717 C 155.567 226.437,155.200 225.891,155.200 225.504 C 155.200 225.117,155.020 224.800,154.800 224.800 C 154.580 224.800,154.400 224.386,154.400 223.880 C 154.400 223.374,154.221 222.781,154.002 222.562 C 153.784 222.344,153.564 221.678,153.515 221.082 C 153.466 220.487,153.285 220.000,153.113 220.000 C 152.941 220.000,152.800 219.640,152.800 219.200 C 152.800 218.760,152.620 218.400,152.400 218.400 C 152.180 218.400,152.000 218.038,152.000 217.595 C 152.000 217.152,151.841 216.477,151.647 216.095 C 151.081 214.982,150.529 213.525,149.982 211.700 C 149.701 210.765,149.321 210.000,149.136 210.000 C 148.951 210.000,148.800 209.460,148.800 208.800 C 148.800 208.140,148.620 207.600,148.400 207.600 C 148.180 207.600,148.000 207.060,148.000 206.400 C 148.000 205.740,147.820 205.200,147.600 205.200 C 147.380 205.200,147.200 204.761,147.200 204.224 C 147.200 203.687,147.020 203.136,146.800 203.000 C 146.580 202.864,146.400 202.403,146.400 201.976 C 146.400 201.549,146.220 201.200,146.000 201.200 C 145.780 201.200,145.600 200.660,145.600 200.000 C 145.600 199.340,145.420 198.800,145.200 198.800 C 144.980 198.800,144.800 198.350,144.800 197.800 C 144.800 197.250,144.620 196.800,144.400 196.800 C 144.180 196.800,144.000 196.498,144.000 196.128 C 144.000 195.154,143.094 192.800,142.720 192.800 C 142.544 192.800,142.400 192.260,142.400 191.600 C 142.400 190.940,142.220 190.400,142.000 190.400 C 141.780 190.400,141.599 189.905,141.598 189.300 C 141.596 188.695,141.326 187.684,140.998 187.054 C 140.669 186.424,140.400 185.599,140.400 185.221 C 140.400 184.843,140.281 184.414,140.135 184.268 C 139.672 183.806,138.469 180.065,138.706 179.827 C 138.831 179.702,138.723 179.600,138.467 179.600 C 138.210 179.600,138.000 179.251,138.000 178.824 C 138.000 178.397,137.856 177.958,137.679 177.849 C 137.503 177.740,137.107 176.728,136.800 175.600 C 136.493 174.472,136.097 173.460,135.921 173.351 C 135.744 173.242,135.600 172.623,135.600 171.976 C 135.600 171.329,135.420 170.800,135.200 170.800 C 134.980 170.800,134.800 170.476,134.800 170.080 C 134.800 169.684,134.584 169.144,134.320 168.880 C 133.947 168.507,143.947 168.400,179.320 168.400 C 224.533 168.400,224.800 168.405,224.800 169.200 " stroke="none" fill="#72b252" fill-rule="evenodd"></path><path id="path1" d="M170.800 172.800 C 170.800 173.020,170.622 173.200,170.405 173.200 C 169.796 173.200,168.400 174.515,168.400 175.089 C 168.400 175.370,168.220 175.600,168.000 175.600 C 167.769 175.600,167.600 176.867,167.600 178.600 C 167.600 180.333,167.769 181.600,168.000 181.600 C 168.220 181.600,168.400 181.852,168.400 182.159 C 168.400 182.467,169.255 183.600,170.300 184.677 C 171.345 185.754,172.261 186.987,172.337 187.417 C 172.412 187.848,172.637 188.260,172.837 188.333 C 173.036 188.407,173.200 188.812,173.200 189.233 C 173.200 189.655,173.380 190.000,173.600 190.000 C 173.820 190.000,174.000 190.360,174.000 190.800 C 174.000 191.240,174.180 191.600,174.400 191.600 C 174.620 191.600,174.800 192.309,174.800 193.176 C 174.800 194.043,174.980 194.864,175.200 195.000 C 175.438 195.147,175.600 197.663,175.600 201.200 C 175.600 204.737,175.438 207.253,175.200 207.400 C 174.980 207.536,174.800 208.357,174.800 209.224 C 174.800 210.091,174.620 210.800,174.400 210.800 C 174.180 210.800,174.000 211.160,174.000 211.600 C 174.000 212.040,173.820 212.400,173.600 212.400 C 173.380 212.400,173.200 212.850,173.200 213.400 C 173.200 213.950,173.020 214.400,172.800 214.400 C 172.580 214.400,172.400 214.636,172.400 214.925 C 172.400 215.213,172.040 215.836,171.600 216.308 C 171.160 216.780,170.800 217.444,170.800 217.783 C 170.800 218.122,170.524 218.400,170.187 218.400 C 169.851 218.400,169.458 218.715,169.315 219.100 C 169.172 219.485,168.728 220.091,168.328 220.447 C 167.517 221.167,167.227 226.800,168.000 226.800 C 168.220 226.800,168.400 227.083,168.400 227.429 C 168.400 228.237,169.363 229.200,170.171 229.200 C 170.517 229.200,170.800 229.380,170.800 229.600 C 170.800 229.829,172.002 230.000,173.607 230.000 L 176.415 230.000 179.007 227.407 C 180.433 225.981,181.600 224.608,181.600 224.354 C 181.600 224.101,181.920 223.603,182.311 223.247 C 183.282 222.362,186.407 216.007,186.403 214.924 C 186.401 214.442,186.580 213.936,186.800 213.800 C 187.020 213.664,187.200 213.034,187.200 212.400 C 187.200 211.766,187.380 211.136,187.600 211.000 C 187.820 210.864,188.000 210.043,188.000 209.176 L 188.000 207.600 212.576 207.600 C 227.844 207.600,237.243 207.455,237.390 207.216 C 237.659 206.780,234.213 196.139,233.540 195.328 C 233.187 194.902,228.753 194.800,210.593 194.800 L 188.084 194.800 187.857 193.300 C 187.316 189.720,187.091 188.800,186.756 188.800 C 186.560 188.800,186.400 188.341,186.400 187.781 C 186.400 187.220,186.040 186.016,185.600 185.106 C 185.160 184.195,184.800 183.214,184.800 182.925 C 184.800 182.636,184.620 182.400,184.400 182.400 C 184.180 182.400,184.000 182.164,184.000 181.875 C 184.000 181.587,183.640 180.964,183.200 180.492 C 182.760 180.020,182.400 179.448,182.400 179.221 C 182.400 178.446,177.931 173.619,176.509 172.858 C 175.455 172.294,170.800 172.247,170.800 172.800 " stroke="none" fill="#f7a23c" fill-rule="evenodd"></path><path id="path2" d="M312.600 86.596 C 308.513 87.635,305.961 88.699,301.793 91.104 C 299.605 92.366,295.705 95.625,294.140 97.499 C 293.293 98.512,292.384 99.558,292.121 99.821 C 290.956 100.988,287.989 106.790,286.917 110.000 C 279.549 132.056,295.263 155.095,318.492 156.291 C 353.272 158.083,369.132 114.418,341.587 92.707 C 339.983 91.443,333.074 87.837,331.600 87.495 C 331.050 87.367,329.520 86.985,328.200 86.645 C 325.236 85.883,315.527 85.853,312.600 86.596 M327.800 97.667 C 345.649 103.817,350.908 125.452,337.728 138.506 C 322.055 154.028,296.000 143.070,296.000 120.955 C 296.000 104.359,312.390 92.357,327.800 97.667 " stroke="none" fill="#f2faf7" fill-rule="evenodd"></path><path id="path3" d="M315.400 85.439 C 312.262 85.897,307.627 87.355,304.800 88.774 C 302.628 89.864,300.221 91.264,300.000 91.566 C 299.890 91.716,299.170 92.277,298.400 92.814 C 295.974 94.504,290.400 100.572,290.400 101.522 C 290.400 101.748,290.244 101.993,290.053 102.067 C 289.863 102.140,288.966 103.736,288.061 105.612 C 280.298 121.717,285.906 141.769,300.794 151.135 C 303.646 152.929,304.529 153.394,307.100 154.454 C 309.927 155.619,309.929 155.620,314.400 156.477 C 318.234 157.212,328.034 156.867,328.980 155.963 C 329.189 155.763,329.776 155.600,330.285 155.600 C 330.794 155.600,331.523 155.441,331.905 155.247 C 332.287 155.052,333.140 154.670,333.800 154.397 C 347.470 148.749,356.400 135.543,356.400 120.975 C 356.400 117.322,355.808 114.149,354.143 108.888 C 352.403 103.387,347.049 96.054,342.400 92.801 C 341.630 92.262,340.651 91.502,340.225 91.111 C 339.798 90.720,339.228 90.400,338.958 90.400 C 338.688 90.400,338.407 90.265,338.333 90.100 C 338.109 89.595,333.670 87.567,331.200 86.842 C 330.430 86.615,329.170 86.232,328.400 85.989 C 326.948 85.531,317.508 85.132,315.400 85.439 M328.200 86.645 C 329.520 86.985,331.050 87.367,331.600 87.495 C 333.074 87.837,339.983 91.443,341.587 92.707 C 366.312 112.194,356.636 151.051,325.821 156.022 C 300.000 160.188,278.606 134.879,286.917 110.000 C 287.989 106.790,290.956 100.988,292.121 99.821 C 292.384 99.558,293.293 98.512,294.140 97.499 C 298.202 92.636,305.280 88.456,312.600 86.596 C 315.527 85.853,325.236 85.883,328.200 86.645 M110.400 87.599 C 99.272 88.082,88.661 89.012,78.200 90.420 C 74.900 90.864,70.856 91.402,69.213 91.615 C 64.220 92.263,54.250 94.124,51.600 94.904 C 43.632 97.248,41.254 108.393,47.680 113.278 C 51.498 116.181,52.970 116.337,61.800 114.784 C 78.457 111.853,90.355 110.495,109.000 109.397 C 141.564 107.480,175.732 110.821,199.200 118.217 C 204.142 119.774,208.653 121.265,209.500 121.621 C 210.738 122.142,211.888 122.612,214.000 123.461 C 235.576 132.135,257.528 150.935,269.824 171.268 C 270.911 173.066,272.299 175.361,272.910 176.368 C 274.363 178.767,280.048 190.094,280.957 192.400 C 281.347 193.390,281.939 194.830,282.274 195.600 C 282.608 196.370,283.019 197.360,283.187 197.800 C 283.355 198.240,283.680 199.050,283.909 199.600 C 285.708 203.920,289.256 214.738,290.836 220.718 C 293.514 230.855,300.057 235.058,307.092 231.160 C 313.210 227.770,314.121 223.726,311.136 213.200 C 297.517 165.166,271.771 129.827,236.200 110.344 C 232.435 108.282,223.779 104.000,223.376 104.000 C 223.274 104.000,222.428 103.661,221.496 103.246 C 220.563 102.831,218.720 102.094,217.400 101.607 C 216.080 101.120,214.640 100.571,214.200 100.387 C 203.481 95.902,179.074 90.716,159.800 88.828 C 157.380 88.591,153.690 88.222,151.600 88.008 C 146.382 87.473,119.441 87.206,110.400 87.599 " stroke="none" fill="#a4d38b" fill-rule="evenodd"></path><path id="path4" d="M92.000 40.800 C 92.000 41.020,91.280 41.200,90.400 41.200 C 89.520 41.200,88.800 41.380,88.800 41.600 C 88.800 41.820,88.453 42.000,88.029 42.000 C 87.604 42.000,86.987 42.270,86.657 42.600 C 86.327 42.930,85.847 43.200,85.590 43.200 C 84.982 43.200,80.481 47.914,80.178 48.868 C 80.051 49.271,79.811 49.600,79.645 49.600 C 79.480 49.600,79.096 50.511,78.793 51.625 C 78.490 52.739,78.097 53.740,77.921 53.849 C 77.744 53.958,77.600 55.027,77.600 56.224 C 77.600 58.841,77.562 58.833,84.000 57.581 C 86.310 57.132,89.190 56.606,90.400 56.413 C 98.500 55.119,105.967 54.023,109.400 53.623 C 111.600 53.366,114.605 52.986,116.077 52.778 C 117.549 52.570,119.367 52.400,120.116 52.400 C 120.867 52.400,121.860 52.068,122.331 51.660 L 123.185 50.919 121.996 49.860 C 121.342 49.277,120.665 48.800,120.492 48.800 C 120.318 48.800,119.917 48.440,119.600 48.000 C 119.283 47.560,118.703 47.200,118.312 47.200 C 117.920 47.200,117.600 47.042,117.600 46.849 C 117.600 46.655,117.060 46.273,116.400 46.000 C 115.740 45.727,115.200 45.345,115.200 45.151 C 115.200 44.958,114.855 44.800,114.433 44.800 C 114.012 44.800,113.607 44.622,113.533 44.403 C 113.460 44.185,112.905 43.966,112.300 43.916 C 111.695 43.866,111.200 43.685,111.200 43.513 C 111.200 43.341,110.840 43.200,110.400 43.200 C 109.960 43.200,109.600 43.056,109.600 42.879 C 109.600 42.534,106.407 41.683,103.800 41.333 C 102.920 41.215,102.029 40.956,101.820 40.759 C 101.288 40.256,92.000 40.295,92.000 40.800 M373.800 80.400 C 373.664 80.620,372.753 80.800,371.776 80.800 C 370.799 80.800,370.000 80.980,370.000 81.200 C 370.000 81.420,369.460 81.600,368.800 81.600 C 368.140 81.600,367.600 81.780,367.600 82.000 C 367.600 82.220,367.465 82.379,367.300 82.353 C 365.744 82.107,364.869 83.825,365.941 85.020 C 366.604 85.759,371.400 98.291,374.200 106.600 C 376.063 112.126,378.485 119.949,379.155 122.600 C 380.295 127.110,380.651 128.102,381.353 128.723 C 381.917 129.223,382.163 129.269,382.292 128.900 C 382.388 128.625,382.992 128.400,383.633 128.400 C 384.275 128.400,384.800 128.220,384.800 128.000 C 384.800 127.780,385.340 127.600,386.000 127.600 C 386.660 127.600,387.200 127.420,387.200 127.200 C 387.200 126.980,387.480 126.800,387.823 126.800 C 388.655 126.800,392.400 123.080,392.400 122.253 C 392.400 121.894,392.580 121.600,392.800 121.600 C 393.020 121.600,393.200 121.240,393.200 120.800 C 393.200 120.360,393.380 120.000,393.600 120.000 C 393.842 120.000,394.000 118.267,394.000 115.600 C 394.000 112.933,393.842 111.200,393.600 111.200 C 393.380 111.200,393.200 110.570,393.200 109.800 C 393.200 109.030,393.020 108.400,392.800 108.400 C 392.580 108.400,392.400 107.860,392.400 107.200 C 392.400 106.540,392.241 106.000,392.046 106.000 C 391.851 106.000,391.569 105.013,391.418 103.806 C 391.267 102.600,390.977 101.509,390.772 101.383 C 390.567 101.256,390.400 100.623,390.400 99.976 C 390.400 99.329,390.240 98.800,390.044 98.800 C 389.848 98.800,389.586 98.215,389.463 97.500 C 388.942 94.488,388.690 93.600,388.355 93.600 C 388.160 93.600,388.000 93.060,388.000 92.400 C 388.000 91.740,387.820 91.200,387.600 91.200 C 387.380 91.200,387.200 90.660,387.200 90.000 C 387.200 89.340,387.020 88.800,386.800 88.800 C 386.580 88.800,386.400 88.440,386.400 88.000 C 386.400 87.560,386.220 87.200,386.000 87.200 C 385.780 87.200,385.600 86.914,385.600 86.565 C 385.600 85.567,381.243 81.600,380.146 81.600 C 379.626 81.600,379.200 81.420,379.200 81.200 C 379.200 80.980,378.480 80.800,377.600 80.800 C 376.720 80.800,376.000 80.620,376.000 80.400 C 376.000 80.180,375.561 80.000,375.024 80.000 C 374.487 80.000,373.936 80.180,373.800 80.400 M10.800 130.986 C 10.800 131.333,11.147 131.600,11.600 131.600 C 12.040 131.600,12.400 131.516,12.400 131.414 C 12.400 131.312,12.040 131.035,11.600 130.800 C 10.961 130.458,10.800 130.496,10.800 130.986 M58.466 149.442 C 58.415 150.207,58.509 151.050,58.675 151.316 C 58.841 151.582,59.032 152.152,59.099 152.583 C 59.165 153.013,59.351 153.463,59.510 153.583 C 59.670 153.702,59.802 153.980,59.804 154.200 C 59.812 154.980,61.285 157.570,62.361 158.696 C 62.961 159.324,63.570 160.145,63.714 160.519 C 63.857 160.894,64.162 161.200,64.391 161.200 C 64.620 161.200,65.372 161.740,66.063 162.400 C 66.754 163.060,67.562 163.600,67.859 163.600 C 68.157 163.600,68.400 163.780,68.400 164.000 C 68.400 164.220,68.760 164.400,69.200 164.400 C 69.640 164.400,70.000 164.580,70.000 164.800 C 70.000 165.020,70.360 165.200,70.800 165.200 C 71.240 165.200,71.600 165.380,71.600 165.600 C 71.600 165.820,71.870 166.000,72.200 166.000 C 72.530 166.000,72.800 165.730,72.800 165.400 C 72.800 164.855,72.362 164.642,71.772 164.900 C 71.646 164.955,71.381 164.709,71.182 164.354 C 70.943 163.927,70.477 163.773,69.810 163.900 C 69.218 164.013,68.800 163.909,68.800 163.647 C 68.800 163.401,68.395 163.179,67.900 163.154 C 67.258 163.121,67.195 163.056,67.678 162.929 C 68.072 162.825,68.263 162.509,68.135 162.175 C 67.864 161.468,66.939 161.420,66.665 162.100 C 66.529 162.436,66.453 162.400,66.432 161.989 C 66.396 161.301,64.800 159.774,64.800 160.428 C 64.800 160.658,64.631 160.743,64.425 160.615 C 64.218 160.488,64.118 160.027,64.202 159.592 C 64.285 159.156,64.184 158.800,63.977 158.800 C 63.770 158.800,63.600 158.509,63.600 158.153 C 63.600 157.702,63.357 157.570,62.795 157.717 C 61.987 157.929,60.955 156.779,61.481 156.253 C 61.620 156.114,61.502 156.000,61.220 156.000 C 60.890 156.000,60.774 155.648,60.896 155.012 C 60.999 154.469,60.958 154.103,60.803 154.198 C 60.156 154.598,59.456 152.455,60.014 151.783 C 60.393 151.326,60.420 151.059,60.106 150.866 C 59.863 150.715,59.539 150.097,59.387 149.492 C 58.982 147.878,58.573 147.856,58.466 149.442 M73.200 166.200 C 73.200 166.600,73.600 166.800,74.400 166.800 C 75.060 166.800,75.600 166.994,75.600 167.231 C 75.600 167.489,76.270 167.613,77.270 167.541 C 78.326 167.464,79.000 167.600,79.103 167.910 C 79.214 168.243,80.304 168.400,82.500 168.400 C 86.136 168.400,86.438 168.187,83.281 167.850 C 82.116 167.726,80.991 167.518,80.781 167.388 C 80.572 167.259,80.400 167.354,80.400 167.600 C 80.400 167.846,80.217 167.934,79.993 167.796 C 79.770 167.658,79.670 167.411,79.771 167.247 C 79.872 167.083,79.110 166.968,78.077 166.989 C 76.230 167.029,74.409 166.489,74.403 165.900 C 74.401 165.735,74.130 165.600,73.800 165.600 C 73.470 165.600,73.200 165.870,73.200 166.200 " stroke="none" fill="#3c741c" fill-rule="evenodd"></path><path id="path5" d="M21.600 80.400 C 21.600 80.620,20.880 80.800,20.000 80.800 C 19.120 80.800,18.400 80.980,18.400 81.200 C 18.400 81.420,17.900 81.600,17.288 81.600 C 16.635 81.600,15.939 81.930,15.600 82.400 C 15.283 82.840,14.783 83.200,14.490 83.200 C 13.718 83.200,8.987 88.129,9.571 88.324 C 9.880 88.427,9.756 88.696,9.228 89.065 C 8.710 89.429,8.400 90.086,8.400 90.823 C 8.400 91.470,8.220 92.000,8.000 92.000 C 7.780 92.000,7.600 92.450,7.600 93.000 C 7.600 93.550,7.420 94.000,7.200 94.000 C 6.941 94.000,6.800 99.000,6.800 108.200 C 6.800 117.400,6.941 122.400,7.200 122.400 C 7.420 122.400,7.600 122.724,7.600 123.120 C 7.600 123.989,8.489 125.993,8.877 125.997 C 9.029 125.999,9.085 126.360,9.000 126.800 C 8.915 127.240,9.016 127.600,9.223 127.600 C 9.430 127.600,9.600 127.830,9.600 128.111 C 9.600 128.392,9.915 128.915,10.300 129.272 C 10.685 129.630,11.492 130.480,12.094 131.161 C 12.695 131.842,13.420 132.400,13.705 132.400 C 13.990 132.400,14.483 132.760,14.800 133.200 C 15.117 133.640,15.686 134.000,16.065 134.000 C 16.443 134.000,16.864 134.180,17.000 134.400 C 17.136 134.620,17.687 134.800,18.224 134.800 C 18.761 134.800,19.200 134.980,19.200 135.200 C 19.200 135.674,36.650 135.767,36.942 135.295 C 37.045 135.126,36.758 134.181,36.304 133.195 C 35.406 131.245,34.949 129.691,34.365 126.600 C 34.155 125.486,34.000 114.942,34.016 102.800 C 34.032 90.810,34.034 80.775,34.022 80.500 C 33.994 79.867,21.600 79.767,21.600 80.400 " stroke="none" fill="#e95f28" fill-rule="evenodd"></path><path id="path6" d="M316.600 96.768 C 293.579 100.238,288.235 131.220,308.677 142.705 C 319.865 148.990,334.685 145.020,341.440 133.928 C 352.246 116.186,337.191 93.664,316.600 96.768 " stroke="none" fill="#ffcc4d" fill-rule="evenodd"></path></g></svg>