<svg id="svg" version="1.1"
     xmlns="http://www.w3.org/2000/svg" xmlns:xlink="http://www.w3.org/1999/xlink"
     width="380" height="380"
     viewBox="-30, -80, 500, 550">
    <g id="svgg">
        <path id="path0"
              d="M173.600 48.400 C 173.258 48.621,168.960 48.794,163.600 48.803 C 158.430 48.812,153.485 48.985,152.611 49.188 C 151.737 49.390,148.357 49.591,145.100 49.634 C 141.843 49.676,139.083 49.866,138.966 50.056 C 138.849 50.245,136.614 50.400,134.000 50.400 C 131.263 50.400,129.142 50.570,129.000 50.800 C 128.864 51.020,127.413 51.200,125.776 51.200 C 123.533 51.200,122.800 51.334,122.800 51.744 C 122.800 52.305,122.107 52.438,115.000 53.240 C 108.103 54.019,103.467 54.633,97.200 55.598 C 89.959 56.713,87.725 57.107,83.400 58.034 C 82.080 58.317,79.830 58.571,78.400 58.600 C 76.970 58.628,75.710 58.707,75.600 58.777 C 75.490 58.846,74.950 58.951,74.400 59.009 C 72.166 59.244,69.743 59.721,68.800 60.110 C 67.441 60.671,67.184 60.749,65.800 61.023 C 65.140 61.153,64.240 61.406,63.800 61.585 C 63.360 61.763,62.190 62.130,61.200 62.400 C 59.349 62.905,57.921 63.428,56.705 64.047 C 56.323 64.241,55.648 64.400,55.205 64.400 C 54.762 64.400,54.400 64.580,54.400 64.800 C 54.400 65.020,54.057 65.200,53.638 65.200 C 53.219 65.200,52.184 65.539,51.338 65.953 C 50.492 66.367,48.900 67.129,47.800 67.647 C 46.700 68.165,45.710 68.682,45.600 68.795 C 45.490 68.909,44.932 69.242,44.361 69.536 C 43.789 69.830,42.816 70.504,42.198 71.035 C 41.581 71.566,40.922 72.000,40.735 72.000 C 40.151 72.000,35.600 76.838,35.600 77.459 C 35.600 77.782,35.420 77.936,35.200 77.800 C 34.980 77.664,34.800 77.923,34.800 78.376 C 34.800 78.829,34.665 79.200,34.500 79.200 C 33.998 79.200,34.319 126.769,34.833 128.600 C 35.081 129.480,35.715 131.280,36.243 132.600 C 36.770 133.920,37.202 135.332,37.201 135.738 C 37.199 137.114,41.695 142.400,42.868 142.400 C 43.173 142.400,43.683 142.760,44.000 143.200 C 44.317 143.640,44.897 144.000,45.288 144.000 C 45.680 144.000,46.000 144.180,46.000 144.400 C 46.000 144.620,46.270 144.800,46.600 144.800 C 46.930 144.800,47.200 144.980,47.200 145.200 C 47.200 145.420,47.560 145.600,48.000 145.600 C 48.440 145.600,48.800 145.780,48.800 146.000 C 48.800 146.220,49.329 146.400,49.976 146.400 C 50.623 146.400,51.264 146.580,51.400 146.800 C 51.536 147.020,52.537 147.200,53.624 147.200 C 54.711 147.200,55.600 147.351,55.600 147.535 C 55.600 147.720,56.230 147.894,57.000 147.923 C 57.770 147.952,58.400 147.801,58.400 147.588 C 58.400 147.036,207.188 147.079,209.600 147.632 C 217.389 149.417,224.800 159.341,224.800 167.987 C 224.800 168.801,224.935 169.602,225.100 169.767 C 225.265 169.932,225.414 170.187,225.431 170.333 C 225.591 171.707,226.212 174.007,226.664 174.900 C 226.970 175.505,227.124 176.000,227.005 176.000 C 226.886 176.000,227.052 176.630,227.374 177.400 C 227.696 178.170,227.894 178.800,227.815 178.800 C 227.736 178.800,228.096 179.970,228.614 181.400 C 229.133 182.830,229.441 184.000,229.299 184.000 C 229.156 184.000,229.256 184.216,229.520 184.480 C 229.784 184.744,230.000 185.363,230.000 185.856 C 230.000 186.349,230.180 186.864,230.400 187.000 C 230.620 187.136,230.800 187.766,230.800 188.400 C 230.800 189.034,230.980 189.664,231.200 189.800 C 231.420 189.936,231.600 190.476,231.600 191.000 C 231.600 191.524,231.780 192.064,232.000 192.200 C 232.220 192.336,232.400 192.899,232.400 193.452 C 232.400 194.005,232.654 194.712,232.965 195.022 C 233.276 195.333,234.189 197.705,234.995 200.294 C 235.800 202.882,236.626 205.413,236.829 205.919 C 237.033 206.424,237.200 207.459,237.200 208.219 C 237.200 208.978,237.380 209.600,237.600 209.600 C 237.820 209.600,238.000 210.140,238.000 210.800 C 238.000 211.460,238.180 212.000,238.400 212.000 C 238.620 212.000,238.800 212.439,238.800 212.976 C 238.800 213.513,238.980 214.064,239.200 214.200 C 239.420 214.336,239.600 214.977,239.600 215.624 C 239.600 216.271,239.780 216.800,240.000 216.800 C 240.220 216.800,240.400 217.192,240.400 217.672 C 240.400 218.490,240.911 220.379,241.624 222.200 C 241.938 223.002,242.357 224.733,242.374 225.304 C 242.380 225.471,242.633 226.101,242.937 226.704 C 243.241 227.307,243.415 228.009,243.324 228.263 C 243.233 228.518,243.347 228.844,243.579 228.987 C 243.810 229.130,244.000 229.676,244.000 230.200 C 244.000 230.724,244.180 231.264,244.400 231.400 C 244.620 231.536,244.800 232.177,244.800 232.824 L 244.800 234.000 205.824 234.000 C 180.271 234.000,166.762 233.862,166.600 233.600 C 166.464 233.380,165.846 233.200,165.227 233.200 C 164.209 233.200,162.012 232.341,159.754 231.060 C 158.627 230.421,156.000 227.695,156.000 227.164 C 156.000 226.932,155.728 226.471,155.396 226.139 C 155.064 225.807,154.895 225.370,155.020 225.168 C 155.145 224.965,155.100 224.800,154.920 224.800 C 154.740 224.800,154.146 223.360,153.600 221.600 C 153.054 219.840,152.471 218.400,152.304 218.400 C 152.137 218.400,152.000 218.038,152.000 217.595 C 152.000 217.152,151.841 216.477,151.647 216.095 C 151.452 215.713,151.071 214.860,150.800 214.200 C 150.529 213.540,150.148 212.687,149.953 212.305 C 149.759 211.923,149.600 211.248,149.600 210.805 C 149.600 210.362,149.420 210.000,149.200 210.000 C 148.980 210.000,148.800 209.561,148.800 209.024 C 148.800 208.487,148.620 207.936,148.400 207.800 C 148.180 207.664,148.000 207.013,148.000 206.353 C 148.000 205.655,147.833 205.256,147.600 205.400 C 147.366 205.545,147.200 205.130,147.200 204.400 C 147.200 203.670,147.034 203.255,146.800 203.400 C 146.567 203.544,146.400 203.137,146.400 202.424 C 146.400 201.751,146.220 201.200,146.000 201.200 C 145.780 201.200,145.600 200.838,145.600 200.395 C 145.600 199.952,145.441 199.277,145.247 198.895 C 145.052 198.513,144.671 197.660,144.400 197.000 C 144.129 196.340,143.748 195.487,143.553 195.105 C 143.359 194.723,143.200 194.048,143.200 193.605 C 143.200 193.162,143.020 192.800,142.800 192.800 C 142.580 192.800,142.400 192.260,142.400 191.600 C 142.400 190.940,142.220 190.400,142.000 190.400 C 141.780 190.400,141.598 190.085,141.595 189.700 C 141.590 189.053,139.624 183.050,139.133 182.182 C 139.013 181.972,138.671 180.945,138.371 179.900 C 138.071 178.855,137.685 178.000,137.513 178.000 C 137.341 178.000,137.200 177.561,137.200 177.024 C 137.200 176.487,137.020 175.936,136.800 175.800 C 136.580 175.664,136.400 175.201,136.400 174.771 C 136.400 174.341,136.241 173.677,136.047 173.295 C 135.852 172.913,135.471 172.060,135.200 171.400 C 134.928 170.740,134.469 169.750,134.178 169.200 L 133.651 168.200 120.551 168.094 C 107.308 167.988,106.410 168.079,107.120 169.453 C 107.721 170.615,108.203 171.925,109.381 175.600 C 109.980 177.470,110.790 179.720,111.180 180.600 C 111.571 181.480,112.107 182.920,112.373 183.800 C 112.870 185.446,113.428 186.877,114.047 188.095 C 114.241 188.477,114.400 189.141,114.400 189.571 C 114.400 190.001,114.580 190.464,114.800 190.600 C 115.020 190.736,115.200 191.287,115.200 191.824 C 115.200 192.361,115.380 192.800,115.600 192.800 C 115.820 192.800,116.000 193.073,116.000 193.406 C 116.000 194.376,116.966 197.200,117.297 197.200 C 117.464 197.200,117.600 197.740,117.600 198.400 C 117.600 199.060,117.780 199.600,118.000 199.600 C 118.220 199.600,118.400 200.050,118.400 200.600 C 118.400 201.150,118.580 201.600,118.800 201.600 C 119.020 201.600,119.200 201.949,119.200 202.376 C 119.200 202.803,119.380 203.264,119.600 203.400 C 119.820 203.536,120.000 204.087,120.000 204.624 C 120.000 205.161,120.180 205.600,120.400 205.600 C 120.620 205.600,120.800 206.039,120.800 206.576 C 120.800 207.113,120.980 207.664,121.200 207.800 C 121.420 207.936,121.600 208.487,121.600 209.024 C 121.600 209.561,121.780 210.000,122.000 210.000 C 122.220 210.000,122.400 210.450,122.400 211.000 C 122.400 211.550,122.580 212.000,122.800 212.000 C 123.020 212.000,123.200 212.540,123.200 213.200 C 123.200 213.860,123.380 214.400,123.600 214.400 C 123.820 214.400,124.000 214.814,124.000 215.320 C 124.000 215.826,124.149 216.411,124.330 216.620 C 124.512 216.829,124.893 217.810,125.178 218.800 C 125.462 219.790,125.793 220.870,125.913 221.200 C 126.033 221.530,126.162 221.890,126.200 222.000 C 126.238 222.110,126.406 222.560,126.573 223.000 C 127.452 225.318,128.400 227.978,128.853 229.400 C 129.134 230.280,129.507 231.171,129.682 231.380 C 129.857 231.589,130.000 232.174,130.000 232.680 C 130.000 233.186,130.180 233.600,130.400 233.600 C 130.620 233.600,130.800 233.799,130.800 234.043 C 130.800 234.700,133.266 239.778,133.661 239.933 C 133.847 240.007,134.000 240.422,134.000 240.857 C 134.000 241.292,134.180 241.536,134.400 241.400 C 134.620 241.264,134.800 241.394,134.800 241.688 C 134.800 241.983,135.150 242.476,135.579 242.785 C 136.007 243.093,136.279 243.472,136.184 243.626 C 136.023 243.886,142.918 251.200,143.324 251.200 C 143.426 251.200,144.564 251.899,145.854 252.754 C 148.945 254.802,151.923 256.313,153.368 256.567 C 154.010 256.679,154.656 256.967,154.804 257.207 C 154.952 257.446,155.237 257.594,155.437 257.536 C 155.636 257.478,156.225 257.665,156.745 257.953 C 157.264 258.241,158.124 258.393,158.654 258.292 C 159.185 258.190,159.715 258.263,159.833 258.454 C 159.951 258.644,160.926 258.800,162.000 258.800 C 163.074 258.800,164.064 258.980,164.200 259.200 C 164.362 259.463,179.737 259.600,209.024 259.600 C 253.333 259.600,253.600 259.605,253.600 260.400 C 253.600 260.840,253.780 261.200,254.000 261.200 C 254.220 261.200,254.400 261.794,254.400 262.520 C 254.400 263.246,254.579 264.019,254.798 264.238 C 255.016 264.456,255.236 265.122,255.285 265.718 C 255.334 266.313,255.515 266.800,255.687 266.800 C 255.859 266.800,256.000 267.250,256.000 267.800 C 256.000 268.350,256.180 268.800,256.400 268.800 C 256.620 268.800,256.800 269.441,256.800 270.224 C 256.800 271.071,256.962 271.547,257.200 271.400 C 257.434 271.256,257.600 271.664,257.600 272.382 C 257.600 273.058,257.767 273.923,257.971 274.305 C 258.510 275.316,258.933 276.507,259.014 277.245 C 259.053 277.599,259.216 278.409,259.375 279.045 C 259.535 279.680,259.606 280.208,259.533 280.218 C 259.460 280.227,259.688 280.677,260.040 281.218 C 260.393 281.758,260.634 282.515,260.576 282.900 C 260.518 283.285,260.635 283.600,260.835 283.600 C 261.036 283.600,261.200 284.104,261.200 284.720 C 261.200 285.336,261.349 286.011,261.530 286.220 C 261.712 286.429,262.102 287.410,262.397 288.400 C 263.488 292.065,264.708 295.642,264.950 295.884 C 265.088 296.021,265.200 296.633,265.200 297.243 C 265.200 297.853,265.380 298.464,265.600 298.600 C 265.820 298.736,266.000 299.287,266.000 299.824 C 266.000 300.361,266.180 300.800,266.400 300.800 C 266.620 300.800,266.800 301.419,266.800 302.176 C 266.800 302.933,266.980 303.664,267.200 303.800 C 267.420 303.936,267.600 304.476,267.600 305.000 C 267.600 305.524,267.780 306.064,268.000 306.200 C 268.220 306.336,268.400 306.876,268.400 307.400 C 268.400 307.924,268.580 308.464,268.800 308.600 C 269.020 308.736,269.200 309.737,269.200 310.824 C 269.200 311.911,269.367 312.800,269.572 312.800 C 269.802 312.800,269.802 313.297,269.572 314.097 C 269.367 314.811,269.200 316.082,269.200 316.921 C 269.200 317.837,269.040 318.348,268.800 318.200 C 268.580 318.064,268.400 318.331,268.400 318.793 C 268.400 319.255,268.040 320.020,267.600 320.492 C 267.160 320.964,266.800 321.587,266.800 321.875 C 266.800 322.164,266.620 322.400,266.400 322.400 C 266.180 322.400,266.000 322.681,266.000 323.024 C 266.000 323.393,265.812 323.531,265.538 323.362 C 265.271 323.197,265.184 323.251,265.332 323.491 C 265.473 323.718,265.054 324.511,264.401 325.252 C 263.747 325.994,263.210 326.722,263.206 326.871 C 263.203 327.021,262.963 327.381,262.674 327.671 C 261.862 328.487,260.034 331.744,259.898 332.618 C 259.832 333.048,259.636 333.626,259.464 333.902 C 258.273 335.810,259.293 343.639,260.987 345.600 C 261.272 345.930,261.629 346.605,261.780 347.100 C 261.930 347.595,262.240 348.000,262.466 348.000 C 262.693 348.000,263.356 348.497,263.940 349.104 C 265.018 350.227,267.449 351.520,270.028 352.344 C 271.914 352.946,368.629 353.001,369.000 352.400 C 369.136 352.180,369.766 352.000,370.400 352.000 C 371.034 352.000,371.664 351.820,371.800 351.600 C 371.936 351.380,372.397 351.200,372.824 351.200 C 373.251 351.200,373.600 351.020,373.600 350.800 C 373.600 350.580,373.960 350.400,374.400 350.400 C 374.840 350.400,375.200 350.220,375.200 350.000 C 375.200 349.780,375.560 349.600,376.000 349.600 C 376.440 349.600,376.800 349.420,376.800 349.200 C 376.800 348.980,377.070 348.800,377.400 348.800 C 377.730 348.800,378.000 348.620,378.000 348.400 C 378.000 348.180,378.199 348.000,378.443 348.000 C 378.986 348.000,383.200 343.561,383.200 342.989 C 383.200 342.762,383.560 342.317,384.000 342.000 C 384.440 341.683,384.800 341.103,384.800 340.712 C 384.800 340.320,384.980 340.000,385.200 340.000 C 385.420 340.000,385.600 339.758,385.600 339.461 C 385.600 339.165,385.878 338.366,386.217 337.686 C 387.877 334.358,388.266 323.506,386.758 322.574 C 386.561 322.452,386.400 321.924,386.400 321.400 C 386.400 320.876,386.220 320.336,386.000 320.200 C 385.780 320.064,385.600 319.522,385.600 318.995 C 385.600 318.469,385.398 317.534,385.150 316.919 C 384.311 314.831,384.092 314.203,383.576 312.400 C 383.293 311.410,382.912 310.429,382.730 310.220 C 382.549 310.011,382.400 309.336,382.400 308.720 C 382.400 308.104,382.240 307.600,382.044 307.600 C 381.848 307.600,381.586 307.015,381.463 306.300 C 380.930 303.219,380.689 302.421,380.355 302.628 C 380.160 302.748,380.000 302.217,380.000 301.447 C 380.000 300.677,379.820 299.936,379.600 299.800 C 379.380 299.664,379.200 299.201,379.200 298.771 C 379.200 298.341,379.020 297.632,378.800 297.195 C 378.580 296.758,378.220 296.042,378.000 295.605 C 377.780 295.168,377.600 294.358,377.600 293.805 C 377.600 293.252,377.420 292.800,377.200 292.800 C 376.980 292.800,376.800 292.260,376.800 291.600 C 376.800 290.940,376.620 290.400,376.400 290.400 C 376.180 290.400,376.000 289.770,376.000 289.000 C 376.000 288.230,375.840 287.600,375.645 287.600 C 375.450 287.600,375.182 287.015,375.049 286.300 C 374.917 285.585,374.739 284.640,374.654 284.200 C 374.569 283.760,374.189 282.590,373.808 281.600 C 373.428 280.610,372.896 278.900,372.627 277.800 C 372.093 275.613,371.738 274.568,371.171 273.505 C 370.967 273.123,370.800 272.304,370.800 271.685 C 370.800 271.066,370.643 270.389,370.450 270.180 C 370.023 269.716,368.400 264.674,368.400 263.811 C 368.400 263.469,368.241 262.877,368.047 262.495 C 367.136 260.704,366.786 259.716,366.711 258.729 C 366.667 258.140,366.488 257.745,366.315 257.852 C 366.142 257.960,366.000 257.407,366.000 256.624 C 366.000 255.841,365.820 255.200,365.600 255.200 C 365.380 255.200,365.200 254.660,365.200 254.000 C 365.200 253.340,365.020 252.800,364.800 252.800 C 364.580 252.800,364.400 252.361,364.400 251.824 C 364.400 251.287,364.220 250.736,364.000 250.600 C 363.780 250.464,363.600 249.911,363.600 249.371 C 363.600 248.831,363.442 248.077,363.249 247.695 C 362.713 246.633,362.000 244.224,362.000 243.472 C 362.000 243.102,361.820 242.800,361.600 242.800 C 361.380 242.800,361.200 242.260,361.200 241.600 C 361.200 240.940,361.020 240.400,360.800 240.400 C 360.580 240.400,360.400 239.781,360.400 239.024 C 360.400 238.267,360.220 237.536,360.000 237.400 C 359.780 237.264,359.600 236.724,359.600 236.200 C 359.600 235.676,359.445 235.152,359.256 235.035 C 359.067 234.918,358.791 233.790,358.643 232.528 C 358.495 231.266,358.082 229.911,357.725 229.517 C 357.368 229.123,357.186 228.800,357.320 228.800 C 357.455 228.800,357.310 228.077,356.998 227.194 C 356.686 226.311,356.441 225.546,356.453 225.494 C 356.535 225.128,355.837 222.122,355.595 221.800 C 355.430 221.580,355.196 220.770,355.076 220.000 C 354.735 217.816,354.371 216.271,353.993 215.400 C 353.643 214.594,353.348 212.767,352.945 208.900 C 352.825 207.745,352.576 206.800,352.393 206.800 C 351.823 206.800,350.979 192.964,351.508 192.275 C 351.708 192.014,351.908 190.810,351.952 189.600 C 351.995 188.390,352.183 186.950,352.369 186.400 C 352.555 185.850,352.939 184.590,353.223 183.600 C 353.507 182.610,353.888 181.629,354.070 181.420 C 354.251 181.211,354.400 180.626,354.400 180.120 C 354.400 179.614,354.580 179.200,354.800 179.200 C 355.020 179.200,355.200 178.965,355.200 178.679 C 355.200 177.837,357.148 174.171,358.009 173.392 C 358.444 172.998,358.800 172.516,358.800 172.320 C 358.800 172.124,359.205 171.544,359.700 171.032 C 360.195 170.520,360.881 169.763,361.224 169.350 C 362.432 167.898,368.075 162.800,368.475 162.800 C 368.697 162.800,369.383 162.260,370.000 161.600 C 370.617 160.940,371.329 160.400,371.584 160.400 C 371.839 160.400,371.936 160.220,371.800 160.000 C 371.664 159.780,371.764 159.600,372.022 159.600 C 372.545 159.600,375.200 156.841,375.200 156.298 C 375.200 156.108,375.380 156.064,375.600 156.200 C 375.820 156.336,376.000 156.167,376.000 155.824 C 376.000 155.481,376.180 155.200,376.400 155.200 C 376.620 155.200,376.800 154.919,376.800 154.576 C 376.800 154.233,376.980 154.064,377.200 154.200 C 377.420 154.336,377.600 154.066,377.600 153.600 C 377.600 153.134,377.740 152.839,377.910 152.945 C 378.081 153.050,378.666 152.161,379.210 150.970 C 379.755 149.778,380.335 148.802,380.500 148.801 C 380.665 148.801,380.800 148.271,380.800 147.624 C 380.800 146.977,380.980 146.336,381.200 146.200 C 381.420 146.064,381.600 145.434,381.600 144.800 C 381.600 144.166,381.787 143.532,382.016 143.390 C 382.536 143.069,382.483 131.200,381.962 131.200 C 381.763 131.200,381.600 130.750,381.600 130.200 C 381.600 129.650,381.449 129.200,381.264 129.200 C 380.586 129.200,379.537 126.190,378.927 122.496 C 378.808 121.779,378.551 121.094,378.356 120.973 C 378.160 120.852,378.000 120.234,378.000 119.600 C 378.000 118.966,377.820 118.336,377.600 118.200 C 377.380 118.064,377.200 117.434,377.200 116.800 C 377.200 116.166,377.020 115.536,376.800 115.400 C 376.580 115.264,376.400 114.801,376.400 114.371 C 376.400 113.941,376.241 113.277,376.046 112.895 C 375.851 112.513,375.302 110.940,374.826 109.400 C 374.349 107.860,373.811 106.240,373.629 105.800 C 373.448 105.360,372.722 103.380,372.017 101.400 C 370.067 95.928,367.187 88.445,366.138 86.126 C 365.414 84.525,365.287 83.824,365.580 83.052 C 365.789 82.503,365.825 81.996,365.661 81.927 C 365.309 81.778,363.600 78.193,363.600 77.604 C 363.600 77.382,363.420 77.200,363.200 77.200 C 362.980 77.200,362.800 76.906,362.800 76.547 C 362.800 76.188,362.476 75.603,362.081 75.247 C 361.686 74.891,360.927 73.970,360.394 73.200 C 359.148 71.397,358.559 70.800,358.029 70.800 C 357.793 70.800,357.600 70.620,357.600 70.400 C 357.600 70.180,357.319 70.000,356.976 70.000 C 356.633 70.000,356.445 69.850,356.558 69.668 C 356.671 69.485,356.142 69.091,355.382 68.793 C 354.622 68.495,354.000 68.104,354.000 67.925 C 354.000 67.746,353.449 67.600,352.776 67.600 C 352.063 67.600,351.656 67.433,351.800 67.200 C 351.944 66.967,351.537 66.800,350.824 66.800 C 350.151 66.800,349.600 66.659,349.600 66.487 C 349.600 66.315,348.745 65.943,347.700 65.661 C 346.655 65.378,345.487 64.979,345.105 64.773 C 344.723 64.568,344.059 64.400,343.629 64.400 C 343.199 64.400,342.736 64.220,342.600 64.000 C 342.464 63.780,341.958 63.596,341.476 63.590 C 340.994 63.585,339.537 63.225,338.238 62.790 C 336.939 62.356,335.364 62.000,334.738 62.000 C 334.112 62.000,333.600 61.840,333.600 61.644 C 333.600 61.448,333.015 61.185,332.300 61.060 C 331.585 60.936,330.010 60.642,328.800 60.407 C 327.590 60.173,325.970 59.940,325.200 59.890 C 324.430 59.841,323.707 59.678,323.594 59.529 C 323.367 59.229,320.918 58.808,317.699 58.516 C 316.544 58.412,315.681 58.193,315.781 58.031 C 315.881 57.868,314.937 57.695,313.682 57.645 C 312.427 57.596,311.340 57.385,311.267 57.178 C 311.193 56.970,310.079 56.800,308.790 56.800 C 307.502 56.800,306.336 56.620,306.200 56.400 C 306.064 56.180,305.074 56.000,304.000 56.000 C 302.926 56.000,301.936 55.820,301.800 55.600 C 301.664 55.380,300.339 55.200,298.856 55.200 C 297.373 55.200,295.989 55.035,295.780 54.832 C 295.410 54.475,293.160 54.212,286.600 53.762 C 284.840 53.641,283.229 53.375,283.020 53.171 C 282.811 52.967,281.157 52.800,279.344 52.800 C 277.531 52.800,275.936 52.620,275.800 52.400 C 275.661 52.174,273.721 52.000,271.353 52.000 C 268.655 52.000,267.241 51.857,267.400 51.600 C 267.560 51.342,265.937 51.200,262.824 51.200 C 260.171 51.200,258.000 51.038,258.000 50.840 C 258.000 50.643,255.534 50.455,252.519 50.422 C 249.505 50.390,246.850 50.214,246.619 50.030 C 246.389 49.847,242.875 49.664,238.812 49.624 C 234.748 49.584,231.235 49.395,231.005 49.204 C 230.775 49.013,223.948 48.838,215.833 48.815 C 207.718 48.792,200.893 48.657,200.664 48.516 C 199.921 48.057,175.052 48.113,174.423 48.575 C 173.991 48.894,173.921 48.875,174.147 48.500 C 174.505 47.903,174.399 47.884,173.600 48.400 M329.600 86.404 C 332.619 87.250,339.427 90.309,340.450 91.279 C 340.753 91.565,341.694 92.318,342.541 92.952 C 352.655 100.510,358.267 115.300,355.687 127.600 C 355.434 128.810,355.109 130.387,354.967 131.105 C 354.824 131.823,354.549 132.508,354.354 132.629 C 354.159 132.749,354.000 133.131,354.000 133.477 C 354.000 134.430,351.331 139.492,349.402 142.200 C 345.245 148.033,338.127 153.214,331.600 155.157 C 330.610 155.452,329.350 155.837,328.800 156.013 C 324.687 157.333,317.250 157.230,311.000 155.768 C 304.932 154.348,292.000 145.575,292.000 142.878 C 292.000 142.652,291.855 142.407,291.677 142.333 C 287.627 140.663,283.555 124.723,284.951 116.000 C 285.853 110.363,288.755 102.824,290.802 100.800 C 290.914 100.690,291.522 99.906,292.154 99.059 C 293.624 97.087,296.287 94.424,298.259 92.954 C 299.106 92.322,299.890 91.714,300.000 91.602 C 301.836 89.745,310.572 86.262,315.400 85.463 C 318.156 85.006,326.613 85.567,329.600 86.404 M151.800 88.028 C 182.517 90.975,204.984 95.880,221.496 103.244 C 222.428 103.660,223.274 104.000,223.376 104.000 C 223.477 104.000,225.504 104.935,227.880 106.077 C 261.043 122.019,284.108 146.874,301.306 185.200 C 305.164 193.796,311.175 211.802,312.762 219.513 C 314.382 227.383,306.768 234.226,299.081 231.808 C 294.594 230.397,292.731 227.891,290.836 220.718 C 289.256 214.738,285.708 203.920,283.909 199.600 C 283.680 199.050,283.355 198.240,283.187 197.800 C 283.019 197.360,282.608 196.370,282.274 195.600 C 281.939 194.830,281.347 193.390,280.957 192.400 C 274.092 174.969,258.178 153.041,244.200 141.750 C 237.472 136.315,233.269 133.419,226.400 129.487 C 223.925 128.069,217.478 124.925,214.800 123.829 C 213.370 123.243,211.795 122.592,211.300 122.382 C 210.805 122.172,209.995 121.830,209.500 121.621 C 208.653 121.265,204.142 119.774,199.200 118.217 C 197.169 117.577,193.311 116.524,189.400 115.543 C 156.556 107.306,109.511 106.716,66.400 114.000 C 62.582 114.645,59.473 115.186,57.200 115.600 C 43.542 118.090,38.463 98.179,51.900 94.824 C 75.121 89.027,126.074 85.561,151.800 88.028 M171.600 186.600 C 171.600 186.967,171.793 187.202,172.030 187.123 C 172.267 187.044,172.460 186.809,172.460 186.600 C 172.460 186.391,172.267 186.156,172.030 186.077 C 171.793 185.998,171.600 186.233,171.600 186.600 M175.778 200.835 C 175.631 201.074,175.710 201.470,175.955 201.715 C 176.282 202.042,176.400 201.926,176.400 201.280 C 176.400 200.314,176.192 200.165,175.778 200.835 M200.129 207.500 C 206.910 207.561,217.890 207.561,224.529 207.500 C 231.168 207.438,225.620 207.388,212.200 207.388 C 198.780 207.388,193.348 207.438,200.129 207.500 M169.556 218.653 C 169.319 218.939,169.217 219.404,169.331 219.687 C 169.460 220.009,169.549 219.940,169.568 219.500 C 169.586 219.115,169.859 218.800,170.176 218.800 C 170.493 218.800,170.845 218.650,170.959 218.467 C 171.297 217.920,170.024 218.089,169.556 218.653 " stroke="none" fill="#9c9c9c" fill-rule="evenodd"></path><path id="path1" d="M315.000 85.590 C 314.120 85.742,315.740 85.782,318.600 85.678 C 321.460 85.575,323.875 85.425,323.967 85.345 C 324.255 85.094,316.675 85.300,315.000 85.590 M325.105 85.883 C 325.602 85.979,326.322 85.975,326.705 85.875 C 327.087 85.775,326.680 85.696,325.800 85.701 C 324.920 85.705,324.607 85.787,325.105 85.883 M328.200 86.400 C 328.640 86.589,329.360 86.738,329.800 86.732 C 330.443 86.723,330.404 86.657,329.600 86.400 C 328.232 85.962,327.181 85.962,328.200 86.400 M306.232 88.193 C 304.490 88.953,302.870 89.770,302.632 90.008 C 302.394 90.246,303.550 89.833,305.200 89.090 C 306.850 88.348,308.650 87.541,309.200 87.297 C 309.750 87.054,310.020 86.844,309.800 86.832 C 309.580 86.820,307.974 87.432,306.232 88.193 M110.400 87.598 C 94.788 88.275,78.794 89.972,63.000 92.625 C 52.751 94.347,50.661 94.914,48.325 96.610 C 38.965 103.406,45.648 117.706,57.200 115.600 C 59.473 115.186,62.582 114.645,66.400 114.000 C 107.296 107.090,151.413 107.224,184.200 114.358 C 191.918 116.038,196.001 117.160,205.000 120.076 C 206.980 120.718,209.005 121.413,209.500 121.621 C 209.995 121.830,210.805 122.172,211.300 122.382 C 211.795 122.592,213.370 123.243,214.800 123.829 C 217.478 124.925,223.925 128.069,226.400 129.487 C 245.959 140.685,260.525 155.383,273.049 176.560 C 274.467 178.957,280.130 190.301,280.957 192.400 C 281.347 193.390,281.939 194.830,282.274 195.600 C 282.608 196.370,283.019 197.360,283.187 197.800 C 283.355 198.240,283.680 199.050,283.909 199.600 C 285.708 203.920,289.256 214.738,290.836 220.718 C 292.731 227.891,294.594 230.397,299.081 231.808 C 306.768 234.226,314.382 227.383,312.762 219.513 C 311.175 211.802,305.164 193.796,301.306 185.200 C 284.108 146.874,261.043 122.019,227.880 106.077 C 225.504 104.935,223.477 104.000,223.376 104.000 C 223.274 104.000,222.428 103.660,221.496 103.244 C 204.984 95.880,182.517 90.975,151.800 88.028 C 145.953 87.468,119.696 87.194,110.400 87.598 M334.033 88.152 C 334.441 88.524,338.400 90.393,338.400 90.213 C 338.400 89.988,334.580 88.000,334.147 88.000 C 333.993 88.000,333.942 88.068,334.033 88.152 M339.376 91.013 C 339.804 91.336,340.333 91.600,340.553 91.600 C 340.773 91.600,340.604 91.336,340.176 91.013 C 339.749 90.690,339.220 90.425,339.000 90.425 C 338.780 90.425,338.949 90.690,339.376 91.013 M297.791 93.293 C 295.706 94.988,295.072 95.608,295.252 95.776 C 295.334 95.853,296.379 95.034,297.576 93.957 C 300.049 91.733,300.170 91.360,297.791 93.293 M342.800 93.508 C 343.790 94.394,344.677 95.045,344.771 94.955 C 344.948 94.786,344.257 94.191,342.200 92.742 C 341.540 92.278,341.810 92.622,342.800 93.508 M293.399 97.495 C 292.108 99.035,290.818 100.856,291.482 100.200 C 292.776 98.923,294.889 96.355,294.755 96.222 C 294.669 96.136,294.059 96.709,293.399 97.495 M346.017 96.271 C 346.027 96.452,346.954 97.590,348.078 98.800 L 350.122 101.000 348.569 99.000 C 346.689 96.579,345.994 95.836,346.017 96.271 M351.888 104.825 C 352.940 106.920,353.860 108.491,353.934 108.315 C 354.073 107.983,351.024 102.093,350.358 101.408 C 350.148 101.193,350.837 102.731,351.888 104.825 M288.968 103.818 C 288.382 104.818,287.970 105.704,288.053 105.786 C 288.135 105.868,288.697 105.050,289.301 103.968 C 290.683 101.493,290.405 101.367,288.968 103.818 M286.996 107.872 C 286.658 108.681,286.433 109.500,286.497 109.691 C 286.561 109.882,286.916 109.220,287.287 108.219 C 288.093 106.045,287.870 105.779,286.996 107.872 M285.857 111.100 C 285.748 111.485,285.555 112.430,285.428 113.200 C 285.138 114.949,285.760 113.621,286.130 111.700 C 286.393 110.334,286.195 109.899,285.857 111.100 M354.834 112.400 C 354.846 112.730,355.011 113.360,355.200 113.800 L 355.544 114.600 355.566 113.800 C 355.578 113.360,355.413 112.730,355.200 112.400 C 354.855 111.867,354.815 111.867,354.834 112.400 M284.597 118.500 C 284.448 120.095,284.480 122.660,284.669 124.200 C 284.978 126.711,285.014 126.411,285.023 121.300 C 285.034 114.811,284.977 114.439,284.597 118.500 M355.800 121.200 C 355.800 124.044,355.922 126.062,356.072 125.685 C 356.221 125.308,356.344 123.290,356.344 121.200 C 356.344 119.110,356.221 117.092,356.072 116.715 C 355.922 116.338,355.800 118.356,355.800 121.200 M285.280 128.200 C 285.280 128.640,285.424 129.450,285.600 130.000 C 285.854 130.792,285.920 130.833,285.920 130.200 C 285.920 129.760,285.776 128.950,285.600 128.400 C 285.346 127.608,285.280 127.567,285.280 128.200 M355.029 129.029 C 354.881 129.615,354.851 130.184,354.961 130.294 C 355.071 130.404,355.281 130.015,355.429 129.429 C 355.576 128.842,355.606 128.273,355.496 128.163 C 355.386 128.053,355.176 128.442,355.029 129.029 M286.254 132.000 C 286.389 132.550,286.745 133.540,287.045 134.200 C 287.484 135.164,287.543 135.203,287.346 134.400 C 287.211 133.850,286.855 132.860,286.555 132.200 C 286.116 131.236,286.057 131.197,286.254 132.000 M287.877 136.279 C 288.451 137.822,291.600 142.943,291.600 142.334 C 291.600 142.195,290.880 140.897,290.000 139.448 C 289.120 138.000,288.400 136.642,288.400 136.431 C 288.400 136.220,288.222 135.937,288.005 135.803 C 287.767 135.656,287.716 135.847,287.877 136.279 M349.417 141.616 C 347.072 145.049,342.492 149.342,338.996 151.387 C 336.270 152.981,335.481 153.692,337.700 152.554 C 342.528 150.079,348.534 144.252,351.362 139.300 C 352.183 137.861,351.106 139.145,349.417 141.616 M292.008 142.942 C 291.997 143.431,296.774 148.325,298.200 149.284 C 298.860 149.729,298.374 149.165,297.121 148.031 C 295.867 146.898,294.206 145.212,293.429 144.285 C 292.652 143.358,292.012 142.754,292.008 142.942 M302.000 151.779 C 302.000 151.889,302.540 152.259,303.200 152.600 C 303.860 152.941,304.400 153.131,304.400 153.021 C 304.400 152.911,303.860 152.541,303.200 152.200 C 302.540 151.859,302.000 151.669,302.000 151.779 M312.000 155.982 C 312.330 156.205,312.945 156.391,313.367 156.394 C 314.390 156.402,314.071 156.173,312.600 155.844 C 311.724 155.648,311.562 155.685,312.000 155.982 M327.600 156.000 C 326.776 156.264,326.741 156.326,327.400 156.354 C 327.840 156.373,328.470 156.213,328.800 156.000 C 329.501 155.547,329.014 155.547,327.600 156.000 M316.800 156.836 C 318.069 157.197,322.694 157.206,323.966 156.850 C 324.498 156.701,322.878 156.573,320.366 156.566 C 317.855 156.558,316.250 156.679,316.800 156.836 M170.554 173.296 C 167.771 175.457,167.600 175.773,167.600 178.739 C 167.600 180.887,167.741 181.569,168.225 181.754 C 168.569 181.886,168.739 182.176,168.602 182.397 C 168.465 182.619,168.543 182.800,168.776 182.800 C 169.009 182.800,169.200 183.070,169.200 183.400 C 169.200 183.730,169.418 183.955,169.685 183.900 C 169.952 183.845,170.350 184.193,170.569 184.674 C 170.788 185.155,171.376 185.734,171.876 185.962 C 172.457 186.226,172.700 186.596,172.549 186.988 C 172.420 187.325,172.514 187.600,172.757 187.600 C 173.001 187.600,173.200 187.955,173.200 188.388 C 173.200 188.821,173.560 189.817,174.000 190.600 C 174.440 191.383,174.800 192.638,174.800 193.389 C 174.800 194.139,174.980 194.864,175.200 195.000 C 175.420 195.136,175.600 196.507,175.600 198.047 C 175.600 199.812,175.748 200.756,176.000 200.600 C 176.220 200.464,176.400 200.734,176.400 201.200 C 176.400 201.666,176.220 201.936,176.000 201.800 C 175.747 201.644,175.600 202.663,175.600 204.576 C 175.600 206.325,175.431 207.600,175.200 207.600 C 174.980 207.600,174.800 208.320,174.800 209.200 C 174.800 210.080,174.620 210.800,174.400 210.800 C 174.180 210.800,174.000 211.229,174.000 211.754 C 174.000 212.892,173.031 214.898,172.661 214.527 C 172.517 214.384,172.400 214.657,172.400 215.133 C 172.400 215.610,172.033 216.367,171.585 216.815 C 171.137 217.263,170.885 217.815,171.026 218.042 C 171.166 218.268,170.902 218.553,170.440 218.674 C 169.978 218.794,169.600 219.112,169.600 219.379 C 169.600 219.646,169.147 220.107,168.593 220.404 C 167.648 220.909,167.589 221.125,167.642 223.864 C 167.673 225.471,167.857 226.689,168.049 226.569 C 168.242 226.450,168.403 226.858,168.406 227.476 C 168.410 228.275,168.514 228.440,168.762 228.047 C 169.037 227.613,169.171 227.679,169.385 228.353 C 169.535 228.825,169.798 229.125,169.970 229.019 C 170.142 228.912,170.624 229.084,171.041 229.400 C 172.218 230.291,176.057 230.179,177.082 229.224 C 177.540 228.797,178.039 228.572,178.191 228.724 C 178.343 228.876,178.407 228.795,178.333 228.544 C 178.260 228.292,178.560 227.750,179.000 227.338 C 179.440 226.926,180.008 226.231,180.263 225.794 C 180.517 225.357,180.922 225.045,181.163 225.100 C 181.403 225.155,181.600 224.922,181.600 224.583 C 181.600 224.244,181.960 223.580,182.400 223.108 C 182.840 222.636,183.200 222.013,183.200 221.725 C 183.200 221.436,183.399 221.200,183.643 221.200 C 183.886 221.200,183.979 220.923,183.850 220.585 C 183.715 220.235,183.869 219.872,184.207 219.742 C 184.533 219.617,184.800 219.264,184.800 218.957 C 184.800 218.651,184.950 218.400,185.133 218.400 C 185.317 218.400,185.486 218.175,185.510 217.900 C 185.559 217.328,185.780 216.469,186.100 215.600 C 186.222 215.270,186.547 214.100,186.823 213.000 C 187.098 211.900,187.428 210.820,187.556 210.600 C 187.849 210.094,187.889 209.873,187.950 208.391 L 188.000 207.182 212.600 207.291 C 226.130 207.351,237.200 207.348,237.200 207.284 C 237.200 206.889,234.322 197.973,233.526 195.900 L 233.103 194.800 210.551 194.800 L 188.000 194.800 188.000 193.376 C 188.000 192.529,187.838 192.053,187.600 192.200 C 187.364 192.346,187.200 191.897,187.200 191.104 C 187.200 190.365,186.975 189.518,186.700 189.221 C 186.382 188.879,186.369 188.777,186.665 188.943 C 186.920 189.086,186.785 188.491,186.365 187.621 C 185.944 186.751,185.600 185.800,185.600 185.508 C 185.600 185.217,185.336 184.602,185.014 184.142 C 184.692 183.681,184.542 183.191,184.681 183.053 C 184.820 182.914,184.723 182.800,184.467 182.800 C 184.210 182.800,184.000 182.529,184.000 182.197 C 184.000 181.866,183.556 181.209,183.014 180.737 C 182.471 180.265,182.119 179.730,182.232 179.548 C 182.486 179.137,181.108 177.218,179.000 175.048 C 176.378 172.347,172.746 171.594,170.554 173.296 " stroke="none" fill="#c4c4c4" fill-rule="evenodd"></path><path id="path2" d="M313.200 86.604 C 302.508 89.034,293.925 95.657,288.772 105.454 C 288.127 106.679,287.600 107.987,287.600 108.361 C 287.600 108.734,287.447 109.211,287.259 109.420 C 286.896 109.824,286.297 112.050,285.616 115.520 C 284.711 120.131,285.283 127.153,286.974 132.200 C 287.762 134.551,290.064 139.341,290.498 139.533 C 290.664 139.607,290.800 139.888,290.800 140.158 C 290.800 140.428,291.115 141.000,291.500 141.429 C 291.885 141.857,292.892 143.067,293.737 144.117 C 303.791 156.599,323.887 159.959,338.163 151.544 C 354.144 142.124,360.058 122.203,351.889 105.304 C 349.901 101.191,345.662 95.983,342.197 93.397 C 341.319 92.741,340.510 92.114,340.400 92.002 C 339.848 91.444,334.856 88.885,332.600 88.004 C 331.651 87.633,329.321 87.006,326.723 86.422 C 324.238 85.863,315.969 85.975,313.200 86.604 M327.800 97.667 C 345.649 103.817,350.908 125.452,337.728 138.506 C 322.061 154.023,296.000 143.062,296.000 120.955 C 296.000 104.392,312.420 92.367,327.800 97.667 " stroke="none" fill="#f9f9f9" fill-rule="evenodd"></path><path id="path3" d="M318.300 85.895 C 319.455 85.976,321.345 85.976,322.500 85.895 C 323.655 85.814,322.710 85.748,320.400 85.748 C 318.090 85.748,317.145 85.814,318.300 85.895 M312.600 86.400 L 311.800 86.744 312.600 86.732 C 313.040 86.726,313.850 86.576,314.400 86.400 L 315.400 86.080 314.400 86.068 C 313.850 86.062,313.040 86.211,312.600 86.400 M326.400 86.400 C 326.950 86.576,327.760 86.726,328.200 86.732 L 329.000 86.744 328.200 86.400 C 327.760 86.211,326.950 86.062,326.400 86.068 L 325.400 86.080 326.400 86.400 M309.600 87.200 C 309.067 87.545,309.067 87.588,309.600 87.588 C 309.930 87.588,310.470 87.413,310.800 87.200 C 311.333 86.855,311.333 86.812,310.800 86.812 C 310.470 86.812,309.930 86.987,309.600 87.200 M330.000 87.200 C 330.330 87.413,330.870 87.588,331.200 87.588 C 331.733 87.588,331.733 87.545,331.200 87.200 C 330.870 86.987,330.330 86.812,330.000 86.812 C 329.467 86.812,329.467 86.855,330.000 87.200 M301.138 91.185 C 300.113 91.828,299.148 92.560,298.993 92.811 C 298.838 93.062,299.721 92.596,300.956 91.777 C 302.887 90.494,303.516 89.976,303.100 90.008 C 303.045 90.012,302.162 90.542,301.138 91.185 M338.400 90.764 C 338.950 91.214,339.580 91.583,339.800 91.585 C 340.228 91.588,339.505 91.034,338.200 90.360 C 337.669 90.085,337.736 90.221,338.400 90.764 M295.292 96.073 C 293.709 97.654,292.500 99.034,292.607 99.140 C 292.713 99.246,292.845 99.253,292.900 99.156 C 292.955 99.058,294.255 97.678,295.789 96.089 C 299.398 92.351,299.033 92.340,295.292 96.073 M316.600 96.783 C 293.486 100.601,288.194 131.270,308.677 142.695 C 327.994 153.469,350.877 134.228,343.753 113.203 C 340.008 102.153,328.012 94.899,316.600 96.783 M347.680 98.806 C 348.626 100.019,349.719 101.459,350.109 102.006 L 350.818 103.000 350.237 101.800 C 349.918 101.140,348.825 99.700,347.808 98.600 L 345.959 96.600 347.680 98.806 M291.293 100.700 C 290.257 102.196,289.921 102.800,290.123 102.800 C 290.217 102.800,290.770 102.080,291.353 101.200 C 292.536 99.412,292.484 98.979,291.293 100.700 M351.634 104.600 C 351.634 104.820,351.978 105.630,352.400 106.400 C 352.822 107.170,353.166 107.620,353.166 107.400 C 353.166 107.180,352.822 106.370,352.400 105.600 C 351.978 104.830,351.634 104.380,351.634 104.600 M353.429 108.800 C 353.576 109.350,353.864 110.070,354.067 110.400 C 354.325 110.817,354.357 110.695,354.171 110.000 C 354.024 109.450,353.736 108.730,353.533 108.400 C 353.275 107.983,353.243 108.105,353.429 108.800 M286.229 111.029 C 286.081 111.615,286.038 112.172,286.132 112.266 C 286.227 112.360,286.424 111.958,286.571 111.371 C 286.719 110.785,286.762 110.228,286.668 110.134 C 286.573 110.040,286.376 110.442,286.229 111.029 M285.476 114.010 C 285.330 114.555,285.227 115.450,285.246 116.000 C 285.271 116.718,285.384 116.557,285.649 115.427 C 286.055 113.695,285.900 112.425,285.476 114.010 M355.369 120.600 C 355.355 125.338,355.176 127.615,354.679 129.370 C 354.309 130.674,354.087 131.820,354.184 131.917 C 354.281 132.015,354.475 131.578,354.614 130.947 C 354.752 130.316,355.038 129.260,355.248 128.600 C 355.810 126.831,356.105 119.365,355.721 116.600 C 355.455 114.680,355.384 115.480,355.369 120.600 M284.928 121.200 C 284.928 122.630,285.001 123.215,285.089 122.500 C 285.178 121.785,285.178 120.615,285.089 119.900 C 285.001 119.185,284.928 119.770,284.928 121.200 M285.287 126.400 C 285.283 126.950,285.424 127.850,285.600 128.400 C 286.031 129.744,286.031 128.292,285.600 126.600 C 285.326 125.522,285.294 125.502,285.287 126.400 M286.012 130.400 C 286.012 130.730,286.187 131.270,286.400 131.600 C 286.745 132.133,286.788 132.133,286.788 131.600 C 286.788 131.270,286.613 130.730,286.400 130.400 C 286.055 129.867,286.012 129.867,286.012 130.400 M353.113 134.181 C 352.742 135.181,352.517 136.000,352.614 136.000 C 352.893 136.000,354.031 133.094,353.903 132.709 C 353.839 132.518,353.484 133.180,353.113 134.181 M350.653 139.300 L 349.933 140.600 350.758 139.600 C 351.489 138.713,351.814 138.000,351.486 138.000 C 351.424 138.000,351.049 138.585,350.653 139.300 M293.196 143.995 C 295.097 146.266,297.856 148.781,300.200 150.381 C 302.529 151.971,306.450 154.050,306.860 153.913 C 307.054 153.849,305.956 153.185,304.420 152.438 C 300.916 150.735,295.700 146.639,293.714 144.033 C 292.881 142.940,292.048 142.035,291.863 142.023 C 291.677 142.010,292.277 142.898,293.196 143.995 M345.029 146.143 C 341.263 149.991,341.302 150.167,345.133 146.609 C 346.629 145.220,349.520 141.919,349.134 142.043 C 349.060 142.066,347.213 143.911,345.029 146.143 M339.096 150.950 C 337.175 152.131,336.638 152.689,338.200 151.881 C 339.454 151.233,341.145 150.026,340.800 150.025 C 340.690 150.025,339.923 150.441,339.096 150.950 M308.000 154.333 C 308.330 154.536,309.050 154.824,309.600 154.971 C 310.295 155.157,310.417 155.125,310.000 154.867 C 309.670 154.664,308.950 154.376,308.400 154.229 C 307.705 154.043,307.583 154.075,308.000 154.333 M331.700 154.448 C 330.985 154.654,330.400 154.911,330.400 155.019 C 330.400 155.309,332.538 154.753,332.980 154.348 C 333.416 153.949,333.430 153.948,331.700 154.448 M312.600 155.797 C 313.700 156.120,315.320 156.363,316.200 156.336 C 317.759 156.289,317.749 156.280,315.800 156.012 C 314.700 155.860,313.080 155.617,312.200 155.472 C 310.814 155.244,310.868 155.287,312.600 155.797 M327.800 155.600 C 326.781 156.038,327.832 156.038,329.200 155.600 C 330.004 155.343,330.043 155.277,329.400 155.268 C 328.960 155.262,328.240 155.411,327.800 155.600 M323.700 156.287 C 324.305 156.378,325.295 156.378,325.900 156.287 C 326.505 156.195,326.010 156.120,324.800 156.120 C 323.590 156.120,323.095 156.195,323.700 156.287 M319.705 156.687 C 320.314 156.779,321.214 156.777,321.705 156.682 C 322.197 156.587,321.700 156.511,320.600 156.514 C 319.500 156.517,319.097 156.595,319.705 156.687 " stroke="none" fill="#cccccc" fill-rule="evenodd"></path><path id="path4" d="M92.000 40.800 C 92.000 41.020,91.280 41.200,90.400 41.200 C 89.520 41.200,88.800 41.380,88.800 41.600 C 88.800 41.820,88.453 42.000,88.029 42.000 C 87.604 42.000,86.987 42.270,86.657 42.600 C 86.327 42.930,85.854 43.200,85.606 43.200 C 84.972 43.200,80.512 47.816,80.202 48.793 C 80.061 49.237,79.778 49.600,79.573 49.600 C 79.368 49.600,79.200 49.949,79.200 50.376 C 79.200 50.803,79.020 51.264,78.800 51.400 C 78.580 51.536,78.400 52.051,78.400 52.544 C 78.400 53.037,78.210 53.630,77.977 53.863 C 77.745 54.095,77.610 55.256,77.677 56.443 L 77.800 58.600 79.400 58.557 C 80.280 58.533,82.080 58.290,83.400 58.017 C 88.117 57.040,90.154 56.683,97.200 55.598 C 103.467 54.633,108.103 54.019,115.000 53.240 C 122.383 52.407,122.724 52.335,122.922 51.575 C 123.100 50.897,121.263 48.800,120.492 48.800 C 120.318 48.800,119.917 48.440,119.600 48.000 C 119.283 47.560,118.786 47.200,118.495 47.200 C 118.204 47.200,117.580 46.840,117.108 46.400 C 116.636 45.960,116.013 45.600,115.725 45.600 C 115.436 45.600,115.200 45.420,115.200 45.200 C 115.200 44.980,114.840 44.800,114.400 44.800 C 113.960 44.800,113.600 44.659,113.600 44.487 C 113.600 44.315,112.745 43.926,111.700 43.622 C 110.655 43.318,109.710 42.954,109.600 42.813 C 109.342 42.483,105.865 41.591,103.800 41.324 C 102.920 41.211,102.029 40.956,101.820 40.759 C 101.288 40.256,92.000 40.295,92.000 40.800 M180.900 48.287 C 181.505 48.378,182.495 48.378,183.100 48.287 C 183.705 48.195,183.210 48.120,182.000 48.120 C 180.790 48.120,180.295 48.195,180.900 48.287 M186.300 48.282 C 186.795 48.378,187.605 48.378,188.100 48.282 C 188.595 48.187,188.190 48.109,187.200 48.109 C 186.210 48.109,185.805 48.187,186.300 48.282 M191.111 48.293 C 192.051 48.378,193.491 48.377,194.311 48.291 C 195.130 48.205,194.360 48.136,192.600 48.137 C 190.840 48.139,190.170 48.209,191.111 48.293 M21.600 80.390 C 21.600 80.615,20.880 80.800,20.000 80.800 C 19.120 80.800,18.400 80.980,18.400 81.200 C 18.400 81.420,17.860 81.600,17.200 81.600 C 16.540 81.600,16.000 81.780,16.000 82.000 C 16.000 82.220,15.744 82.400,15.431 82.400 C 14.610 82.400,8.934 88.111,9.550 88.317 C 9.891 88.430,9.786 88.674,9.228 89.065 C 8.710 89.429,8.400 90.086,8.400 90.823 C 8.400 91.470,8.220 92.000,8.000 92.000 C 7.780 92.000,7.600 92.349,7.600 92.776 C 7.600 93.203,7.416 93.666,7.191 93.805 C 6.652 94.139,6.679 122.400,7.219 122.400 C 7.428 122.400,7.600 122.940,7.600 123.600 C 7.600 124.260,7.780 124.800,8.000 124.800 C 8.220 124.800,8.400 125.070,8.400 125.400 C 8.400 125.730,8.580 126.000,8.800 126.000 C 9.020 126.000,9.200 126.191,9.200 126.424 C 9.200 126.657,9.022 126.737,8.805 126.603 C 8.582 126.465,8.508 126.617,8.636 126.948 C 8.760 127.273,9.129 127.641,9.456 127.766 C 9.783 127.892,9.940 128.174,9.805 128.393 C 9.659 128.628,9.830 128.686,10.225 128.535 C 10.762 128.329,10.839 128.447,10.619 129.139 C 10.410 129.800,10.515 130.007,11.073 130.032 C 11.493 130.050,11.589 130.148,11.300 130.265 C 10.490 130.592,10.729 131.600,11.617 131.600 C 12.066 131.600,12.820 131.960,13.292 132.400 C 13.764 132.840,14.612 133.203,15.175 133.206 C 15.984 133.211,16.073 133.294,15.600 133.600 C 15.115 133.914,15.172 133.989,15.900 133.994 C 16.395 133.997,16.800 134.180,16.800 134.400 C 16.800 134.620,17.340 134.800,18.000 134.800 C 18.660 134.800,19.200 134.980,19.200 135.200 C 19.200 135.454,22.333 135.600,27.800 135.600 C 33.267 135.600,36.400 135.746,36.400 136.000 C 36.400 136.220,36.580 136.400,36.800 136.400 C 37.445 136.400,37.263 135.044,36.336 132.951 C 34.663 129.173,34.635 128.750,34.415 104.200 L 34.200 80.200 27.900 80.090 C 23.791 80.018,21.600 80.122,21.600 80.390 M373.800 80.400 C 373.664 80.620,372.753 80.800,371.776 80.800 C 370.799 80.800,370.000 80.980,370.000 81.200 C 370.000 81.420,369.460 81.600,368.800 81.600 C 368.140 81.600,367.600 81.780,367.600 82.000 C 367.600 82.220,367.465 82.379,367.300 82.353 C 365.340 82.043,364.923 83.437,366.157 86.168 C 367.190 88.452,370.081 95.967,372.017 101.400 C 372.722 103.380,373.448 105.360,373.629 105.800 C 373.811 106.240,374.349 107.860,374.826 109.400 C 375.302 110.940,375.851 112.513,376.046 112.895 C 376.241 113.277,376.400 113.941,376.400 114.371 C 376.400 114.801,376.580 115.264,376.800 115.400 C 377.020 115.536,377.200 116.166,377.200 116.800 C 377.200 117.434,377.380 118.064,377.600 118.200 C 377.820 118.336,378.000 118.966,378.000 119.600 C 378.000 120.234,378.160 120.852,378.356 120.973 C 378.551 121.094,378.808 121.779,378.927 122.496 C 379.654 126.899,380.593 129.200,381.664 129.200 C 382.069 129.200,382.400 129.020,382.400 128.800 C 382.400 128.580,382.940 128.400,383.600 128.400 C 384.260 128.400,384.800 128.220,384.800 128.000 C 384.800 127.780,385.340 127.600,386.000 127.600 C 386.660 127.600,387.200 127.420,387.200 127.200 C 387.200 126.980,387.480 126.800,387.823 126.800 C 388.655 126.800,392.400 123.080,392.400 122.253 C 392.400 121.894,392.580 121.600,392.800 121.600 C 393.020 121.600,393.200 121.240,393.200 120.800 C 393.200 120.360,393.380 120.000,393.600 120.000 C 393.842 120.000,394.000 118.267,394.000 115.600 C 394.000 112.933,393.842 111.200,393.600 111.200 C 393.380 111.200,393.200 110.570,393.200 109.800 C 393.200 109.030,393.020 108.400,392.800 108.400 C 392.580 108.400,392.400 107.860,392.400 107.200 C 392.400 106.540,392.241 106.000,392.046 106.000 C 391.851 106.000,391.569 105.013,391.418 103.806 C 391.267 102.600,390.977 101.509,390.772 101.383 C 390.567 101.256,390.400 100.623,390.400 99.976 C 390.400 99.329,390.240 98.800,390.044 98.800 C 389.848 98.800,389.586 98.215,389.463 97.500 C 388.942 94.488,388.690 93.600,388.355 93.600 C 388.160 93.600,388.000 93.060,388.000 92.400 C 388.000 91.740,387.820 91.200,387.600 91.200 C 387.380 91.200,387.200 90.660,387.200 90.000 C 387.200 89.340,387.020 88.800,386.800 88.800 C 386.580 88.800,386.400 88.440,386.400 88.000 C 386.400 87.560,386.220 87.200,386.000 87.200 C 385.780 87.200,385.600 86.914,385.600 86.565 C 385.600 85.567,381.243 81.600,380.146 81.600 C 379.626 81.600,379.200 81.420,379.200 81.200 C 379.200 80.980,378.480 80.800,377.600 80.800 C 376.720 80.800,376.000 80.620,376.000 80.400 C 376.000 80.180,375.561 80.000,375.024 80.000 C 374.487 80.000,373.936 80.180,373.800 80.400 M58.400 148.950 C 58.400 151.807,60.358 156.600,62.396 158.733 C 62.977 159.341,63.570 160.145,63.714 160.519 C 63.857 160.894,64.178 161.200,64.427 161.200 C 64.676 161.200,65.383 161.740,66.000 162.400 C 66.617 163.060,67.409 163.600,67.760 163.600 C 68.112 163.600,68.400 163.780,68.400 164.000 C 68.400 164.220,68.760 164.400,69.200 164.400 C 69.640 164.400,70.000 164.580,70.000 164.800 C 70.000 165.020,70.360 165.200,70.800 165.200 C 71.240 165.200,71.600 165.380,71.600 165.600 C 71.600 165.820,71.960 166.000,72.400 166.000 C 72.840 166.000,73.200 166.180,73.200 166.400 C 73.200 166.620,73.740 166.800,74.400 166.800 C 75.060 166.800,75.600 166.980,75.600 167.200 C 75.600 167.420,76.410 167.600,77.400 167.600 C 78.472 167.600,79.200 167.783,79.200 168.052 C 79.200 168.387,86.223 168.427,106.264 168.207 L 133.328 167.909 134.055 168.854 C 134.657 169.637,134.784 169.679,134.791 169.100 C 134.800 168.438,137.213 168.400,179.800 168.400 L 224.800 168.400 224.800 167.454 C 224.800 161.254,218.922 151.715,213.460 149.050 C 209.630 147.181,211.344 147.220,133.100 147.210 L 58.400 147.200 58.400 148.950 M375.200 156.258 C 375.200 156.473,374.822 157.055,374.360 157.551 C 373.898 158.047,373.608 158.541,373.716 158.649 C 373.824 158.758,374.312 158.285,374.800 157.600 C 375.288 156.915,375.578 156.244,375.444 156.110 C 375.310 155.976,375.200 156.043,375.200 156.258 M357.398 174.002 C 356.998 174.444,356.766 174.899,356.882 175.015 C 356.997 175.130,357.390 174.769,357.755 174.212 C 358.552 172.996,358.393 172.902,357.398 174.002 M351.206 199.276 C 351.218 200.281,351.987 201.108,351.994 200.124 C 351.997 199.642,351.820 199.136,351.600 199.000 C 351.380 198.864,351.203 198.988,351.206 199.276 M156.400 228.000 C 156.635 228.440,157.003 228.800,157.217 228.800 C 157.433 228.800,157.384 228.443,157.107 228.000 C 156.832 227.560,156.465 227.200,156.290 227.200 C 156.115 227.200,156.165 227.560,156.400 228.000 M269.200 313.800 C 269.200 314.350,269.269 314.800,269.353 314.800 C 269.438 314.800,269.593 314.350,269.698 313.800 C 269.803 313.250,269.734 312.800,269.545 312.800 C 269.355 312.800,269.200 313.250,269.200 313.800 M263.050 326.488 C 262.496 327.196,262.123 327.856,262.221 327.954 C 262.320 328.053,262.446 328.058,262.501 327.967 C 262.557 327.875,263.012 327.215,263.513 326.500 C 264.689 324.822,264.360 324.814,263.050 326.488 " stroke="none" fill="#848484" fill-rule="evenodd"></path></g></svg>